<svg xmlns="http://www.w3.org/2000/svg" xml:space="preserve" width="214.47507" height="214.47975" x="0px" y="0px" version="1.2" viewBox="0 0 214.47507 214.47975"><g transform="translate(.035 .04)"><circle cx="108.74255" cy="107.03679" r="105.35611" style="fill:#fff;stroke-width:1"/><path fill="#008348" d="M0 104.4C1.6 45.2 50.9-1.6 110.1 0 169.3 1.6 216 50.9 214.4 110.1c-1.6 59.2-50.9 105.9-110.1 104.3C45.2 212.8-1.5 163.6 0 104.4Zm166.2 17.1c-3.6-5-9.9-8-15.4-8.7-5.5-.7-9.5 0-14.2 1.4-6 1.4-10.6 3.6-16.8 6 3.3-3.6 7.2-7.8 10-12.8 3.9-6.9 6.2-11.8 6.5-19.1.3-7.2-3.6-15.6-9.7-19.9-4.8-3.3-11.6-3.6-16.8-.1-2.2 1.4-3.8 2.8-4.8 3.9-4.6-3.2-9.1-5-14.8-4.1-5.1.5-8.8 5-11.1 9.1-7.4 15 5.2 30 14.5 40.8-16.6-4.9-20.7-5-25-5.4-4.3-.4-11.1.1-16 2.9s-9.3 7.5-9.7 15.8c-.3 6.1 3 12.1 9.2 15.6-3.4 8.2-1.1 16.6 7.5 20.3 9.8 4.3 18.3 1.5 25-3.4 6.7-4.9 12.5-11.2 17.5-17.9-1.6 36.4 21.1 47.6 21.1 47.6l2.5-9c-4.3-3.1-15.7-13.6-14.7-38.2l2 2c5.9 6.1 11.2 11.1 18.3 16.9 7.1 5.8 20.6 7.8 28.4-1.7 3.6-4.3 4.7-13 2.5-16.6l.1-.8c3.4-2.2 6.2-4.8 7.4-8.8 1.8-5.4-.7-11.5-3.5-15.8zM30.1 73l-9.6-3.3-1.4 4.1 1.7.6-2.1.8-2.2 6.4 3.4 5 28.5 9.7 5.1-1.9 2.9-8.6-3.3-4.8-5-1.7-1.5 4.4 5.4 1.8-2.1 6.1L21 81.7l2.1-6.3 5.5 1.9zm142.6-18.2 7-7.4-3.1-3-1.2 1.3.2-2.2-4.9-4.6-6 1L144 61.7l-.4 5.5 6.6 6.2 5.8-1 3.7-3.9-3.4-3.2-3.9 4.2-4.7-4.4L168.6 43l4.9 4.6-4 4.2zM50.2 45.9l-7.6-6.7-11.3 13 3.3 2.9 1.8-2.1 23 20.1-1.8 2.1 3.2 2.8 11.3-13-7.5-6.6-2.8 3.2 4.3 3.7-3.6 4.1-10.1-8.8 3.2-3.7-3.3-2.9-3.2 3.7-9.7-8.4 3.4-3.9 4.4 3.8zm43.9 8.7-3.9-9.2-4.1 1.7 2.2 5.2-4.5 1.9-11.8-28 2.4-1-1.7-4-9 3.8 1.7 4 2.4-1 11.9 28.1-2.4 1 1.7 4zm25.4-29.8V14.7H98.3v10.1h4.6V19h3.7v30.5h-2.8v4.3H114v-4.3h-2.6V19h3.8v5.8zm26.4 2.6 1.6-4.1-9.2-3.5-1.6 4.1 2.6 1-10.9 28.5-2.6-1-1.5 4 9.2 3.5 1.5-4-2.3-.9 10.9-28.5zm20.5 67.9 13.8-5.8 2-3.2-3.6-8.7 11.5-4.8 2.7 6.4-5.3 2.2 1.8 4.3 9.3-3.9-1.7-4.1-1.6.7 1.1-2-2.6-6.3-5.5-1.5-12.9 5.4-1.7 3.2 3.6 8.6-12.7 5.2-2.7-6.4 5.2-2.2-1.8-4.3-9.1 3.8 1.8 4.3 1.6-.7-1.1 1.9 2.7 6.6z"/></g></svg>