<svg xmlns="http://www.w3.org/2000/svg" width="238.55999" height="240.60908" viewBox="0 0 238.55999 240.60908"><path d="M217.56 92.53c-.84-14.52-7.32-27.6-11.16-35.4l-.48-.84-1.68-3.36.36 3.72c.36 5.16 1.56 22.92-3.72 33.12-6.6 13.56-25.92 12.24-32.28 11.88h-.36c-10.44-.72-44.4-1.92-54.84-1.92-13.68.12-28.8 1.2-41.04 2.16-6 .48-11.16.84-14.64.96-.36 0-.72.12-1.32.12-17.04 1.56-27.84-3.48-32.04-15-2.52-7.08-2.52-21.12-2.52-27.84v-4.8l-1.32 2.4a90.455 90.455 0 0 0-11.16 35.4c-1.2 21.6 10.08 29.4 18.6 33.24 9 4.2 18.12 4.8 21.12 5.04h.12a11.643 11.643 0 0 0 2.04.12 13.174 13.174 0 0 1 3 .24c-1.68.36-3.84.72-5.64.96-2.04.48-3.96.72-4.92.96-2.04.48-10.68 2.4-15.24 4.08-3.84 1.32-8.16 3.36-8.28 3.36l-.72.36.6.72s1.44 1.92 2.88 3.48a28.142 28.142 0 0 0 21.6 7.08c8.04-.96 12.48-3 14.16-3.84a82.577 82.577 0 0 0 3.12 9c3.6 9 12 26.4 15.12 32.4 2.52 4.92 5.04 9.24 6.72 12.12l.6 1.08a7.443 7.443 0 0 1-2.88 3.84c-.24.24-.36.48-.6.6l-.12.24v.36c-.12 1.56-.48 16.8 9.72 27.84l.12.12h.12c5.16 2.04 11.76 4.08 22.56 4.08 10.92 0 20.16-2.64 23.4-4.2l.12-.12.12-.12c7.08-8.4 10.44-21.24 10.44-25.8v-.24l-.24-.24-.48-.48a10.79 10.79 0 0 1-3.36-5.64c.96-1.44 2.64-5.04 4.08-7.92a27.34 27.34 0 0 1 1.8-3.72c3-6 11.76-24.96 15.36-33.84 2.16-5.76 3.36-8.52 3.96-9.72 1.56.84 5.76 2.76 13.68 3.6 10.2.96 19.92-5.76 22.68-9.6.48-.6 1.2-1.44 1.32-1.56l.6-.72-.84-.36c-.12 0-.36-.12-2.04-.72l-5.64-1.8-5.64-1.92c-1.56-.48-8.52-2.04-13.44-3.12l-3.84-.84 1.2-.24c11.76-2.52 42.96-7.92 41.16-38.76Z"/><path fill="#ce1141" d="M20.64 61.33c-.36 8.04-.24 16.8 1.56 24.48a66.1 66.1 0 0 0-5.16-4.92c-1.68 1.8-3.12 3.72-4.8 5.4a103.639 103.639 0 0 1 8.4-24.96Z"/><path fill="none" stroke="#ce1141" stroke-width="0.24" d="M20.64 61.33c-.36 8.04-.24 16.8 1.56 24.48a66.1 66.1 0 0 0-5.16-4.92c-1.68 1.8-3.12 3.72-4.8 5.4a103.639 103.639 0 0 1 8.4-24.96Z"/><path fill="#ce1141" d="m214.44 82.69.48 2.16-4.2-3c-1.92.84-3.72 2.04-5.52 2.88a104.93 104.93 0 0 0 1.2-23.88c3.72 6.84 5.76 14.28 8.04 21.84Z"/><path fill="none" stroke="#ce1141" stroke-width="0.24" d="m214.44 82.69.48 2.16-4.2-3c-1.92.84-3.72 2.04-5.52 2.88a104.93 104.93 0 0 0 1.2-23.88c3.72 6.84 5.76 14.28 8.04 21.84Z"/><path fill="#ce1141" d="M113.64 158.77c4.32 6.72 12.36 8.64 19.8 6.72a36.441 36.441 0 0 0 7.92-2.76 65.408 65.408 0 0 0-3.72 22.8 63.396 63.396 0 0 0 3.24 19.8c-1.08-.241-2.04-1.081-3.24-1.56-14.76-7.441-35.52-7.2-50.04.48.72-2.28 1.44-4.92 2.04-7.32 2.16-11.16.6-22.8-3.24-33 7.8 3.24 19.2 3.96 25.56-3.24a13.716 13.716 0 0 1 1.68-1.92Z"/><path fill="none" stroke="#ce1141" stroke-width="0.24" d="M113.64 158.77c4.32 6.72 12.36 8.64 19.8 6.72a36.441 36.441 0 0 0 7.92-2.76 65.408 65.408 0 0 0-3.72 22.8 63.396 63.396 0 0 0 3.24 19.8c-1.08-.241-2.04-1.081-3.24-1.56-14.76-7.441-35.52-7.2-50.04.48.72-2.28 1.44-4.92 2.04-7.32 2.16-11.16.6-22.8-3.24-33 7.8 3.24 19.2 3.96 25.56-3.24a13.716 13.716 0 0 1 1.68-1.92Z"/><path fill="#ce1141" d="M80.76 164.29c-.36 3.12-1.44 6.72-4.8 7.92-2.76.72-5.16-.84-6.96-2.76a7.023 7.023 0 0 1-1.68-3.24c4.2 2.76 9.72.6 13.32-2.04Z"/><path fill="none" stroke="#ce1141" stroke-width="0.24" d="M80.76 164.29c-.36 3.12-1.44 6.72-4.8 7.92-2.76.72-5.16-.84-6.96-2.76a7.023 7.023 0 0 1-1.68-3.24c4.2 2.76 9.72.6 13.32-2.04Z"/><path fill="#ce1141" d="M159.84 164.65c-.96 2.88-3.48 5.76-6.36 6.36a5.42 5.42 0 0 1-5.52-2.64 7.256 7.256 0 0 1-1.32-3.6c3.72 3 9.6 2.28 13.2-.12Z"/><path fill="none" stroke="#ce1141" stroke-width="0.24" d="M159.84 164.65c-.96 2.88-3.48 5.76-6.36 6.36a5.42 5.42 0 0 1-5.52-2.64 7.256 7.256 0 0 1-1.32-3.6c3.72 3 9.6 2.28 13.2-.12Z"/><path fill="#ce1141" d="M151.68 172.81a10.522 10.522 0 0 0 4.68-.6c-4.2 10.44-9.24 20.52-14.4 30.6-1.8-5.04-1.32-10.44-1.08-16.08a100.568 100.568 0 0 1 4.32-19.32c1.44 2.4 3.72 4.919 6.48 5.4Z"/><path fill="none" stroke="#ce1141" stroke-width="0.24" d="M151.68 172.81a10.522 10.522 0 0 0 4.68-.6c-4.2 10.44-9.24 20.52-14.4 30.6-1.8-5.04-1.32-10.44-1.08-16.08a100.568 100.568 0 0 1 4.32-19.32c1.44 2.4 3.72 4.919 6.48 5.4Z"/><path fill="#ce1141" d="M86.04 202.69v.12c-6.36-9.6-11.16-19.8-15.72-30 2.04 1.08 5.52 1.8 7.68.36a11.305 11.305 0 0 0 3.96-6c5.16 10.32 6.36 23.76 4.08 35.52Z"/><path fill="none" stroke="#ce1141" stroke-width="0.24" d="M86.04 202.69v.12c-6.36-9.6-11.16-19.8-15.72-30 2.04 1.08 5.52 1.8 7.68.36a11.305 11.305 0 0 0 3.96-6c5.16 10.32 6.36 23.76 4.08 35.52Z"/><path fill="#ce1141" d="M145.2 210.85a43.765 43.765 0 0 1-9.96 23.88c-13.08 5.16-30.72 5.64-43.8.12-6.48-6.96-8.88-15.96-9.24-25.56 13.92-10.08 35.64-12.36 51.6-5.16 3.96 1.92 7.92 3.84 11.4 6.72Z"/><path fill="none" stroke="#ce1141" stroke-width="0.24" d="M145.2 210.85a43.765 43.765 0 0 1-9.96 23.88c-13.08 5.16-30.72 5.64-43.8.12-6.48-6.96-8.88-15.96-9.24-25.56 13.92-10.08 35.64-12.36 51.6-5.16 3.96 1.92 7.92 3.84 11.4 6.72Z"/><path fill="#ce1141" d="M199.08 138.61a118.544 118.544 0 0 0-36.84-6.84c-1.08-13.32-2.64-21.6-5.28-29.16-6.12-.36-33.24-1.44-43.8-1.44-10.44 0-37.2 1.68-43.2 2.04a118.915 118.915 0 0 0-6.6 29.16 152.462 152.462 0 0 0-39.12 8.28c-1.68.6-2.4 1.2-2.4 1.08a24.86 24.86 0 0 0 18.96 9.48c3.6.12 10.44-.6 14.76-2.52 1.2-.48 3.6-1.56 3.6-1.56a16.954 16.954 0 0 1 1.2 2.52c1.2 3.36 2.76 8.28 3.84 10.32 1.56 3.24 4.08 5.64 8.16 5.76a9.301 9.301 0 0 0 6.84-3.6c-10.56-.6-15-6.24-15.72-14.76-2.52-.36-3.24-.6-3.48-2.04a5.145 5.145 0 0 1 1.08-4.32c1.2-1.68 3.24-3.24 8.28-1.68a25.483 25.483 0 0 1 7.8 4.8c2.16 2.04 8.52 8.64 12.36 10.8 4.08 2.4 11.88 4.68 16.92-.36a19.935 19.935 0 0 0 6-11.4 203.952 203.952 0 0 1-23.76-2.04c-2.16-.36-1.2-2.4.48-1.92 0 0 13.8 1.8 23.64 1.92 0-1.2 0-3.12.12-5.4a154.481 154.481 0 0 1-24.72-2.52c-1.8-.48-1.44-2.52.24-2.04a190.912 190.912 0 0 0 24.48 2.4c0-1.68.12-4.2.12-6.48a164.518 164.518 0 0 1-24.24-2.16c-2.04-.36-1.56-2.16 0-1.92a214.639 214.639 0 0 0 24.24 1.92v-5.4c0-2.04 1.8-2.16 1.8-.12v5.4a163.429 163.429 0 0 0 22.8-2.16c2.4-.48 2.16 1.56 1.08 1.68a159.545 159.545 0 0 1-23.88 2.76v6.48c7.32-.24 15.96-.48 23.28-2.16 2.76-.6 3 1.559.72 1.92a174.876 174.876 0 0 1-23.88 2.4c0 1.8 0 4.08.12 5.4a222.138 222.138 0 0 0 24.84-2.16c1.92-.36 2.28 1.68.24 2.04-2.04.24-15.84 2.04-24.72 2.28.96 3 1.08 7.319 5.4 11.04 4.08 3.6 11.16 3.24 16.08.36 3.84-2.28 9.96-8.88 12.12-10.92 1.8-1.56 6.12-5.52 11.88-5.4 5.64.12 5.76 3 6.12 3.84.24.96.48 2.52-.84 3.36-.96.6-1.92.36-2.88.84-.72 4.68-2.16 9.96-5.88 12.72-3.96 3-10.08 3.36-10.08 3.36s.84.96 1.08 1.2a8.008 8.008 0 0 0 5.52 1.44 12.431 12.431 0 0 0 6.72-3.48c1.92-2.52 3.72-7.681 5.04-11.04.48-1.2 1.68-3.48 2.04-4.44 1.2.48 1.68.84 3.84 1.68a37.607 37.607 0 0 0 13.8 2.4c5.88-.12 12.6-3.72 16.56-7.44.6-.6 2.04-2.28 2.04-2.28s-3.84-1.56-4.92-1.92Z"/><path fill="none" stroke="#ce1141" stroke-width="0.24" d="M199.08 138.61a118.544 118.544 0 0 0-36.84-6.84c-1.08-13.32-2.64-21.6-5.28-29.16-6.12-.36-33.24-1.44-43.8-1.44-10.44 0-37.2 1.68-43.2 2.04a118.915 118.915 0 0 0-6.6 29.16 152.462 152.462 0 0 0-39.12 8.28c-1.68.6-2.4 1.2-2.4 1.08a24.86 24.86 0 0 0 18.96 9.48c3.6.12 10.44-.6 14.76-2.52 1.2-.48 3.6-1.56 3.6-1.56a16.954 16.954 0 0 1 1.2 2.52c1.2 3.36 2.76 8.28 3.84 10.32 1.56 3.24 4.08 5.64 8.16 5.76a9.301 9.301 0 0 0 6.84-3.6c-10.56-.6-15-6.24-15.72-14.76-2.52-.36-3.24-.6-3.48-2.04a5.145 5.145 0 0 1 1.08-4.32c1.2-1.68 3.24-3.24 8.28-1.68a25.483 25.483 0 0 1 7.8 4.8c2.16 2.04 8.52 8.64 12.36 10.8 4.08 2.4 11.88 4.68 16.92-.36a19.935 19.935 0 0 0 6-11.4 203.952 203.952 0 0 1-23.76-2.04c-2.16-.36-1.2-2.4.48-1.92 0 0 13.8 1.8 23.64 1.92 0-1.2 0-3.12.12-5.4a154.481 154.481 0 0 1-24.72-2.52c-1.8-.48-1.44-2.52.24-2.04a190.912 190.912 0 0 0 24.48 2.4c0-1.68.12-4.2.12-6.48a164.518 164.518 0 0 1-24.24-2.16c-2.04-.36-1.56-2.16 0-1.92a214.639 214.639 0 0 0 24.24 1.92v-5.4c0-2.04 1.8-2.16 1.8-.12v5.4a163.429 163.429 0 0 0 22.8-2.16c2.4-.48 2.16 1.56 1.08 1.68a159.545 159.545 0 0 1-23.88 2.76v6.48c7.32-.24 15.96-.48 23.28-2.16 2.76-.6 3 1.559.72 1.92a174.876 174.876 0 0 1-23.88 2.4c0 1.8 0 4.08.12 5.4a222.138 222.138 0 0 0 24.84-2.16c1.92-.36 2.28 1.68.24 2.04-2.04.24-15.84 2.04-24.72 2.28.96 3 1.08 7.319 5.4 11.04 4.08 3.6 11.16 3.24 16.08.36 3.84-2.28 9.96-8.88 12.12-10.92 1.8-1.56 6.12-5.52 11.88-5.4 5.64.12 5.76 3 6.12 3.84.24.96.48 2.52-.84 3.36-.96.6-1.92.36-2.88.84-.72 4.68-2.16 9.96-5.88 12.72-3.96 3-10.08 3.36-10.08 3.36s.84.96 1.08 1.2a8.008 8.008 0 0 0 5.52 1.44 12.431 12.431 0 0 0 6.72-3.48c1.92-2.52 3.72-7.681 5.04-11.04.48-1.2 1.68-3.48 2.04-4.44 1.2.48 1.68.84 3.84 1.68a37.607 37.607 0 0 0 13.8 2.4c5.88-.12 12.6-3.72 16.56-7.44.6-.6 2.04-2.28 2.04-2.28s-3.84-1.56-4.92-1.92Z"/><path d="M135.84 212.29c1.08 2.04.24 4.32-.96 6.12a8.808 8.808 0 0 1-9.12 3 9.418 9.418 0 0 1-5.04-3.84c-.48 1.68.72 2.88.6 4.44a.635.635 0 0 1-.96.12c-1.92-2.52-2.64-6.36-.96-9.12 2.04-3.84 6-5.4 10.2-5.04a8.36 8.36 0 0 1 6.24 4.32Z"/><path fill="none" stroke="#ce1141" stroke-width="0.24" d="M135.84 212.29c1.08 2.04.24 4.32-.96 6.12a8.808 8.808 0 0 1-9.12 3 9.418 9.418 0 0 1-5.04-3.84c-.48 1.68.72 2.88.6 4.44a.635.635 0 0 1-.96.12c-1.92-2.52-2.64-6.36-.96-9.12 2.04-3.84 6-5.4 10.2-5.04a8.36 8.36 0 0 1 6.24 4.32Z"/><path d="M106.92 213.61c1.68 2.76.84 6.36-.72 9-.24.36-.6.72-1.08.36-.72-.84.24-1.56.36-2.4a4.407 4.407 0 0 0 .12-2.16 9.383 9.383 0 0 1-9.36 3.96 8.66 8.66 0 0 1-6-5.16 5.855 5.855 0 0 1 .72-4.92c2.52-3.36 7.08-4.08 10.8-2.88a9.358 9.358 0 0 1 5.16 4.2Z"/><path fill="none" stroke="#ce1141" stroke-width="0.24" d="M106.92 213.61c1.68 2.76.84 6.36-.72 9-.24.36-.6.72-1.08.36-.72-.84.24-1.56.36-2.4a4.407 4.407 0 0 0 .12-2.16 9.383 9.383 0 0 1-9.36 3.96 8.66 8.66 0 0 1-6-5.16 5.855 5.855 0 0 1 .72-4.92c2.52-3.36 7.08-4.08 10.8-2.88a9.358 9.358 0 0 1 5.16 4.2Z"/><path d="M135.6 231.73c-.24.6-.36.6-.84 1.2-1.32-.36-2.76-.84-4.2-1.32-12-4.68-27.24-3.36-38.52 1.32a1.748 1.748 0 0 1-.72-1.08c13.08-5.88 31.08-6.6 44.28-.12Z"/><path fill="none" stroke="#ce1141" stroke-width="0.24" d="M135.6 231.73c-.24.6-.36.6-.84 1.2-1.32-.36-2.76-.84-4.2-1.32-12-4.68-27.24-3.36-38.52 1.32a1.748 1.748 0 0 1-.72-1.08c13.08-5.88 31.08-6.6 44.28-.12Z"/><path d="M137.76 168.01c-1.92 9.48-7.92 20.4-18 23.16-7.92 2.04-16.8.36-22.2-6.24a30.286 30.286 0 0 1-6.36-16.56 2.164 2.164 0 0 1 1.2-.24c.84 9 5.52 18.84 14.52 21.6a21.057 21.057 0 0 0 22.56-6.6 39.255 39.255 0 0 0 7.08-15.6 1.54 1.54 0 0 1 1.2.48Z"/><path fill="none" stroke="#ce1141" stroke-width="0.24" d="M137.76 168.01c-1.92 9.48-7.92 20.4-18 23.16-7.92 2.04-16.8.36-22.2-6.24a30.286 30.286 0 0 1-6.36-16.56 2.164 2.164 0 0 1 1.2-.24c.84 9 5.52 18.84 14.52 21.6a21.057 21.057 0 0 0 22.56-6.6 39.255 39.255 0 0 0 7.08-15.6 1.54 1.54 0 0 1 1.2.48Z"/><path d="M19.8 2.41a10.328 10.328 0 0 0-6.84-2.4C10.2.13 0 3.61 0 18.73c0 15.24 9.24 20.16 14.76 20.16s11.16-4.2 12.96-11.64c.24-1.08.12-1.2-.96-1.68l-3.6-1.44c-.84-.24-.96-.24-1.44 1.2-.36 1.08-1.92 5.4-5.64 5.4s-5.28-5.4-5.28-11.16c0-5.64.96-11.04 5.52-11.04s5.52 4.8 5.88 6.6c.12.84.24.84 1.08.84h3.36c.72 0 .72 0 .72-1.56V1.93c0-.72-.12-.72-1.56-.72h-3c-.6 0-.6.12-.96.96-.36.48-1.08 1.2-2.04.24ZM156.72 8.53l6.96 21.96c.36.96.36 1.08.96 1.08h.96c1.2 0 1.2 0 1.2.96v4.2c0 1.44-.12 1.44-.84 1.44h-13.8c-1.2 0-1.2-.12-1.2-.96v-4.32c0-1.32.12-1.32 1.08-1.32h1.32c.72 0 .72-.24.48-1.08l-1.08-3.36c-.36-.6-.48-.6-1.32-.6h-8.4l1.8-5.04H150c.84 0 .96-.12.72-.72l-3.12-9.72c-.12-.6-.36-.6-.48-.12L144 20.77c-.24.72-.24.72.96.72l-1.8 5.04c-.96 0-.96 0-1.2.6l-1.08 3.36c-.24.96-.24 1.08.36 1.08h1.32c1.08 0 1.08.12 1.08 1.32v4.32c0 .84-.12.96-1.2.96h-9.48c-.84 0-.84-.12-.84-1.44v-4.2c0-.84.12-.96 1.08-.96h.96a.838.838 0 0 0 .96-.72l7.08-22.2c.24-.6.24-.72-.84-.72h-1.32c-1.08 0-1.08-.12-1.08-.96V2.53c0-1.32 0-1.32 1.56-1.32h18.36c1.08 0 1.08.12 1.08 1.32v4.2c0 .96 0 .96-1.32.96h-1.44c-.72-.12-.72.12-.48.84ZM189.96 25.21h2.4c1.08 0 1.08.12 1.08.72 0 2.16-1.56 4.8-5.52 4.8-3.72 0-5.28-5.4-5.28-11.16 0-5.64.96-11.04 5.52-11.04a5.886 5.886 0 0 1 5.88 4.44c.12.84.12.84 1.08.84h3.36c.72 0 .72 0 .72-1.68V1.93c0-.72-.12-.72-1.56-.72h-3c-.6 0-.6 0-1.08.96-.12.48-.96 1.2-1.92.24a10.558 10.558 0 0 0-6.84-2.4c-2.76.12-12.96 3.6-12.96 18.72 0 15.24 9.12 20.16 14.76 20.16 8.4 0 14.88-6.36 14.88-18.36 0-1.2-.12-1.32-1.8-1.32h-9.96c-.96 0-1.08.12-1.08 1.2v3.96c0 .84.12.84 1.32.84ZM222.24.97c-9.12 0-16.44 8.64-16.44 19.08 0 10.56 7.32 18.96 16.44 18.96 9 0 16.32-8.4 16.32-18.96 0-10.44-7.32-19.08-16.32-19.08l-.12 6.84c3.36 0 6.12 5.52 6.12 12.24s-2.64 12.24-6.12 12.24c-3.36 0-6.12-5.52-6.12-12.24s2.76-12.24 6.12-12.24ZM38.04 30.73V8.77c0-.84-.12-.96-.96-.96H36c-1.08 0-1.08-.12-1.08-.84v-4.8c0-.84.12-.96 1.32-.96H49.2c.96 0 1.08 0 1.08.96v4.44c0 .96-.12.96-1.08.96h-.72c-.6 0-.72 0-.6.84v6.36c0 1.56 0 1.68 1.32 1.68h6.96c1.32 0 1.32-.12 1.32-1.68V8.41c0-.84-.12-.84-.6-.84h-.72c-1.08 0-1.2 0-1.2-.96V2.17c0-.96.24-.96 1.2-.96H69c1.44 0 1.44 0 1.44.96v4.8c0 .84-.12.84-1.2.84h-1.08c-.84 0-.84.12-.84.96v21.96c0 .84.12.84 1.08.84h1.08c.96 0 .96 0 .96 1.32v4.32c0 .72 0 .96-1.2.96H55.56c-.84 0-.84 0-.84-1.44v-4.2c-.12-.96 0-.96 1.08-.96h.72c.84 0 .84-.12.84-.96v-6.84c0-1.56-.12-1.68-1.2-1.68H49.2c-1.08 0-1.2.12-1.2 1.68v6.84c0 .96 0 .96.84.96h.72c1.08 0 1.08 0 1.08.96v4.2c0 1.44 0 1.44-.84 1.44H36c-1.08 0-1.08 0-1.08-.96v-4.32c0-1.32.12-1.32.84-1.32h1.2c1.08 0 1.08 0 1.08-.84ZM80.04 8.53c0-.84 0-.84-.6-.84h-1.2c-1.2 0-1.2-.12-1.2-.96V2.17c0-.96.12-.96 1.08-.96h12.84c1.44 0 1.44 0 1.44.96v4.8c0 .84-.12.84-1.2.84h-.6c-.84 0-.84.12-.84.96v21.96c0 .84.12.84 1.08.84h.96c.84 0 .84 0 .84 1.32v4.32c0 .72 0 .96-1.08.96H77.88c-.84 0-.84 0-.84-1.44v-4.2c-.12-.96 0-.96 1.08-.96h1.08c.84 0 .84 0 .84-.96ZM117.6 2.41a10.558 10.558 0 0 0-6.84-2.4C108 .13 97.8 3.61 97.8 18.73c0 15.24 9.12 20.16 14.76 20.16 5.52 0 11.16-4.2 12.96-11.64.24-1.08.12-1.2-.96-1.68l-3.6-1.44c-.84-.24-.96-.24-1.44 1.2-.36 1.08-1.92 5.4-5.64 5.4s-5.28-5.4-5.28-11.16c0-5.64.96-11.04 5.52-11.04s5.52 4.8 5.88 6.6c.12.84.24.84 1.08.84h3.36c.72 0 .72 0 .72-1.56V1.93c0-.72-.12-.72-1.56-.72h-3c-.6 0-.6.12-.96.96-.36.48-1.08 1.2-2.04.24ZM35.88 55.57v21.84c0 .72-.12.72-.84.72h-1.2c-.96 0-1.08.24-1.08 1.2v4.56c0 .84.24.84 1.2.84H54l-6.84-6.96c-1.32 0-1.44 0-1.44-1.44v-6.24c0-1.2.12-1.32 1.44-1.32v-5.64c-1.44 0-1.44-.12-1.44-1.32v-6.36c0-1.32.12-1.32 1.32-1.32 1.32 0 6.6.12 6.6 4.68s-4.8 4.32-6.48 4.32v5.76c1.44 0 6.48.12 6.48 4.68s-4.8 4.44-6.48 4.44L54 84.97c5.04 0 8.76-4.56 8.76-9.72s-3.24-7.2-5.88-9.12c1.92-1.44 5.16-3.6 5.16-8.76 0-5.76-5.64-9.36-9.12-9.36H34.44c-1.56 0-1.68 0-1.68 1.2v4.68c0 .72.12.84 1.2.84h1.2c.72-.24.72-.12.72.84ZM97.2 55.21v18.84c0 4.8-2.52 11.88-12 11.88-9.6 0-14.16-7.08-14.16-11.88V55.21c0-.84-.12-.84-.84-.84h-1.08c-1.08 0-1.08 0-1.08-.96v-4.2c0-1.44.12-1.44 1.32-1.44H82.2c.96 0 1.2 0 1.2 1.2v4.2c0 .96-.12.96-1.44.96h-1.08c-.6 0-.72.12-.72.84v18.36a5.548 5.548 0 0 0 5.64 5.4 5.167 5.167 0 0 0 5.52-5.4V55.21c0-1.08-.12-1.08-.96-1.08h-.96c-1.08 0-1.2 0-1.2-.96v-4.2c0-1.08 0-1.2 1.08-1.2h9.48c1.68 0 1.68 0 1.68 1.2v4.44c0 .96 0 .96-1.2.96h-1.2c-.84.12-.84.12-.84.84ZM141.96 78.13h-1.32c-.84 0-.96.24-.96 1.44v4.32c0 .84.12.84 1.08.84h23.64c1.08 0 1.2 0 1.2-1.32V72.73c0-.96-.12-.96-1.2-.96h-3.36c-1.08 0-1.2 0-1.2 1.32v3.72c0 1.44-.12 1.56-1.08 1.56h-5.28c-1.56 0-1.68-.24-1.68-1.2V55.81c0-1.44 0-1.44.84-1.44h1.32c1.08 0 1.08-.12 1.08-.96v-4.2c0-1.2 0-1.32-1.2-1.32h-12.6c-1.68 0-1.68.12-1.68 1.32v4.32c0 .96.12 1.08 1.2 1.08h1.08c.84 0 .84 0 .84 1.32v21.24c.12.96 0 .96-.72.96ZM196.8 74.53c0 7.8-7.44 11.16-10.56 11.16a11.825 11.825 0 0 1-6.84-2.4c-.96-.96-2.04.12-2.4.6-.48.84-.6.96-.96.96h-1.56c-1.56 0-1.44 0-1.44-.84v-10.2c0-1.68 0-1.68.6-1.68h2.4c.84 0 .84.12 1.08.84a7.168 7.168 0 0 0 6.72 5.04c1.8 0 3.24-.48 3.24-2.04 0-3.48-2.04-4.32-5.64-6.24-3.6-1.8-9-3.96-9-11.88a11.023 11.023 0 0 1 10.32-11.04 10.503 10.503 0 0 1 6.48 2.4 1.559 1.559 0 0 0 2.4-.6c.6-.96.6-.96 1.08-.96h1.56c1.44 0 1.56 0 1.56.84v10.2c0 1.56 0 1.68-.72 1.68h-2.28c-.96 0-.96-.12-1.2-.84a7.681 7.681 0 0 0-7.08-5.04 2.208 2.208 0 0 0-2.4 2.4c0 2.16 2.4 4.08 6.48 6.12 4.08 1.92 8.16 4.92 8.16 11.52ZM109.08 78.13h-1.32c-.84 0-.96.24-.96 1.44v4.32c0 .84.12.84 1.2.84h23.64c.96 0 1.08 0 1.08-1.32V72.73c0-.96-.12-.96-1.08-.96h-3.48c-1.08 0-1.2 0-1.2 1.32v3.72c0 1.44-.12 1.56-1.08 1.56h-5.28c-1.56 0-1.56-.24-1.56-1.2V55.81c0-1.44 0-1.44.72-1.44h1.32c1.08 0 1.08-.12 1.08-.96v-4.2c0-1.2 0-1.32-1.2-1.32h-12.6c-1.56 0-1.56.12-1.56 1.32v4.32c0 .96 0 1.08 1.08 1.08h1.08c.84 0 .84 0 .84 1.32v21.24c.12.96 0 .96-.72.96Z"/><path fill="#fff" d="M24.24 91.93c5.16 9.96 15.6 13.2 26.28 12.6 5.88 0 11.64-.6 17.52-.96v.36a126.455 126.455 0 0 0-6.24 25.8c-15.36.6-31.08-.72-42.36-10.92-7.8-7.8-9.72-18.6-8.04-29.28 1.8-2.16 3.84-3.96 5.64-6.12 2.52 2.76 6.6 4.92 7.2 8.52ZM215.4 87.49c.36 1.56.36 3 .6 4.68.72 11.76-4.44 22.68-14.52 28.68-11.04 6.72-23.76 8.88-37.32 9.36-.24-1.2-.36-2.88-.6-4.2a147.911 147.911 0 0 0-4.68-23.04c14.52-.24 32.16 3.6 41.76-9.72 1.2-1.92 2.52-3.48 3.6-5.52 2.16-.96 4.2-2.4 6.36-3.48 1.8.84 3 2.28 4.8 3.24ZM160.32 147.37c.12 4.56-1.44 9.24-5.52 11.4a12.197 12.197 0 0 1-6.24 1.319 4.862 4.862 0 0 1 0-1.32c3.24 0 6.48-1.2 8.28-3.84a14.426 14.426 0 0 0 1.68-6.84 4.064 4.064 0 0 1 1.8-.72ZM78.48 159.61a3.74 3.74 0 0 1-2.04 0 10.577 10.577 0 0 1-10.56-11.4 2.974 2.974 0 0 1 2.04 0c0 4.2 1.68 9.72 10.32 9.72.6.96 0 1.08.24 1.68Z"/></svg>