<svg xmlns="http://www.w3.org/2000/svg" width="553.99518pt" height="525pt" viewBox="0 0 553.99518 524.99998"><defs><clipPath id="a"><path d="M0 751.181h1247.244V0H0Z"/></clipPath></defs><path fill="#e60039" d="M546.97 94.21a13.81 13.81 0 0 0-14.935.924l-34.28 25.301c-22.278-34.538-52.502-63.578-88-84.43C369.663 12.45 323.755 0 277 0c-46.754 0-92.663 12.45-132.76 36.005-35.493 20.852-65.716 49.892-87.995 84.43l-34.28-25.3a13.79 13.79 0 0 0-14.935-.926 13.802 13.802 0 0 0-6.975 13.24l1.238 13.787c2.476 27.682 8.949 56.275 19.245 85.036a264.216 264.216 0 0 0-6.04 56.226c0 70.116 27.304 136.036 76.887 185.62C140.964 497.694 206.884 525 277 525c70.116 0 136.037-27.305 185.615-76.883 49.578-49.583 76.883-115.503 76.883-185.62 0-18.957-2.029-37.854-6.036-56.225 10.291-28.756 16.765-57.349 19.245-85.036l1.233-13.787a13.803 13.803 0 0 0-6.97-13.24"/><path fill="#00125e" d="M528.834 262.5c0 139.084-112.75 251.838-251.833 251.838-139.09 0-251.839-112.754-251.839-251.838S137.912 10.667 277.001 10.667c139.084 0 251.833 112.749 251.833 251.833"/><path fill="#fff" d="m203.242 440.5 5.037-5.175-19.33-9.357L171 463.052l17.276 8.363 5.042-5.176-13.165-6.369 4.688-9.68 5.906 2.864 5.042-5.176-7.965-3.858 4.306-8.894z"/><g fill="#fff" clip-path="url(#a)" transform="translate(-1951.538 -2135.675) scale(4.97173)"><path d="m441.384 519.061-3.012-.692a.61.61 0 0 0-.733.46l-1.582 6.883a.61.61 0 0 0 .458.732l3.013.693a.61.61 0 0 0 .732-.459l.853-3.707-2.04.18-.31 1.344.597-.053-.254 1.105-.092.057-1.368-.314-.057-.092 1.205-5.24.09-.057 1.369.314.057.092-.341 1.487 1.446-.138.428-1.862a.612.612 0 0 0-.46-.733M449.843 519.665h-3.702v8.286h1.378v-2.72h1.557v2.72h1.378v-7.675a.61.61 0 0 0-.611-.611m-.767 4.188h-1.557v-2.81h1.48l.077.077zM458.013 518.399l-2.944.662a.613.613 0 0 0-.462.73l.453 2.015c.355 1.575 1.552 1.62 2.135 1.642l.194.01c.1.01.202.014.299.018.542.02.687.027.808.565l.268 1.19-.057.093-1.298.292-.091-.058-.278-1.234-1.244.75.362 1.61a.612.612 0 0 0 .73.462l2.944-.663a.611.611 0 0 0 .463-.73l-.454-2.014c-.353-1.571-1.532-1.618-2.107-1.641a3.757 3.757 0 0 1-.277-.018l-.227-.01c-.54-.02-.703-.026-.825-.567l-.268-1.191.058-.091 1.298-.292.09.058.259 1.149 1.245-.75-.343-1.525a.612.612 0 0 0-.731-.462M425.177 517.027l2.152-2.898a.61.61 0 0 0-.127-.855l-2.972-2.208-4.94 6.654 1.107.82 2.059-2.772 1.866 1.385a.61.61 0 0 0 .855-.126m-.604-1.5-.107.017-1.188-.883 1.237-1.666 1.188.882.016.107ZM464.32 516.09l2.803 6.23-.038.101-1.28.576-.102-.038-2.801-6.231-1.259.566 3.149 6.999a.612.612 0 0 0 .808.307l2.82-1.267a.611.611 0 0 0 .305-.809l-3.148-6.999ZM471.707 511.405l-2.427 1.793a.611.611 0 0 0-.13.855l1.228 1.66c.959 1.299 2.073.858 2.615.643l.182-.069c.096-.032.19-.069.28-.105.505-.198.64-.252.968.192l.725.982-.016.107-1.07.79-.107-.016-.751-1.017-.836 1.188.98 1.327c.2.271.583.329.855.128l2.427-1.792a.612.612 0 0 0 .129-.855l-1.227-1.661c-.957-1.295-2.054-.863-2.59-.652-.091.036-.178.07-.26.095l-.212.083c-.503.199-.655.259-.983-.187l-.726-.982.016-.107 1.07-.79.107.016.7.947.836-1.188-.928-1.256a.61.61 0 0 0-.855-.129M434.082 443.816l2.348-.924-.062-.157h.002l-.728-1.85.005-.002a.686.686 0 0 0-.875-.392l-.005-.008-5.21 2.05.376.955 4.77-1.877.296.75-4.878 1.92.373.947 2.371-.933.27.684-2.372.933.376.955 4.875-1.92.405 1.028 1.06-.417-.53-1.346.006-.003a.685.685 0 0 0-.842-.401l-.002-.001-.01.004-.036.01v.005l-1.714.674ZM425.795 445.285l.002-.001-.014-.016-.004-.007h-.001a.684.684 0 0 0-.903-.174l-.001-.001-.02.012-.013.008-3.725 2.557-.296-.431-.93.637.635.924v-.001l.243.353.492-.337c-.031.383.052.77.276 1.096.54.787 1.667.95 2.519.367.85-.584 1.104-1.695.565-2.482a1.69 1.69 0 0 0-.923-.653l1.352-.927 2.096 3.046-3.346 2.295-.446-.65-.934.64.614.896h-.001l.006.009.008.01a.721.721 0 0 0 .974.179l.004.004 4.63-3.176-.422-.615.01-.007-1.375-1.997.7-.481-.58-.845-.701.48zm-2.303 4.166a.734.734 0 1 1-.83-1.211.734.734 0 0 1 .83 1.21M467.155 443.082l-.014-.005a.683.683 0 0 0-.348-.828v-.006l-5.238-2.036-.37.956 4.773 1.856-.386.994-1.643-.639.248-.64-1.217-.474-.249.641-2.15-.836-.369.948 1.331.517a1.52 1.52 0 0 0-.74.813c-.38.978.26 2.14 1.43 2.595 1.168.454 2.424.03 2.805-.95.144-.37.133-.747.003-1.098l1.245.484.368-.948zm-4.585 2.94a.969.969 0 1 1 .702-1.807.969.969 0 0 1-.702 1.806M444.206 439.268l-.003-.025h-.002a.685.685 0 0 0-.74-.583v-.008l-2.991.313.106 1.02 2.47-.259.132 1.2c.149 1.424-.713 2.172-1.861 2.292l-.532.06.107 1.02.662-.071c1.643-.172 3.028-1.362 2.805-3.5l-.153-1.455v-.004M445.939 438.403a.686.686 0 0 0-.577.748h.003l.522 4.991 1.133-.118-.488-4.662.984-.103-.107-1.02-1.47.154Z"/></g><path fill="#fff" d="m288.255 71.323 31.411 4.365.696-5.011-31.411-4.365zM306.65 54.541c2.202 2.859 6.215 5.061 11.112 5.956l3.48.557.696-5.012-3.798-.621c-4.758-.965-8.055-3.39-7.533-7.16l.259-1.913-.433-.06-5.175-.721-.433-.06-.273 1.914c-.522 3.769-4.355 5.206-9.198 4.833l-3.997-.457-.696 5.006 3.674.443c4.957.472 9.416-.557 12.315-2.705M398.11 84.485l1.433-1.914.199-.253.865-1.154-.01-.005.01-.015-2.397-1.785-2.391-1.794-.005.014-.015-.01-.855 1.159-.189.263-1.432 1.915c-5.712 7.646-11.26 9.416-17.301 6.776l-2.795 4.723c4.758 2.67 9.67 3.098 14.776.612-.94 5.598.865 10.192 4.768 13.995l3.744-4.012c-4.246-5.051-4.117-10.868 1.596-18.515"/><path fill="#fff" d="m417.429 93.702-5.783-4.32-.024.035a3.405 3.405 0 0 0-4.62.621l-.029-.02-10.053 13.449-.393-.463-3.684 4.062.796.796-1.69 2.257 4.534 3.39 13.955-18.668 3.938 2.943z"/><path fill="#fff" d="m538.365 103.715-116.974 86.339c-26.56-52.835-81.224-89.108-144.394-89.108-63.166 0-117.83 36.273-144.39 89.108l-116.974-86.34c-2.163-1.595-5.196.11-4.957 2.785l1.238 13.787c4.857 54.29 25.863 112.614 59.143 164.23 29.811 46.248 67.457 83.193 107.713 106.212 25.61 19.648 57.255 31.79 91.689 33.161 2.177.1 4.355.17 6.538.17h.005c2.182 0 4.36-.07 6.532-.17 34.435-1.372 66.085-13.513 91.694-33.156 40.251-23.024 77.897-59.97 107.713-106.216 33.275-51.617 54.281-109.94 59.143-164.231l1.233-13.787c.244-2.675-2.789-4.38-4.952-2.784"/><path fill="#fff" d="M396.109 220.654c-12.539-24.66-32.515-44.9-56.971-57.781 1.009-6.643 1.183-15.77-1.442-29.115-4.698-23.85-16.81-24.207-16.81-24.207-.308 2.853-.924 4.827-3.425 10.167-.423.9-7.98 16.725-14.493 30.377a134.22 134.22 0 0 0-25.972-2.545c-8.904 0-17.595.895-26.012 2.555-6.24-13.085-14.01-29.388-14.483-30.387-2.5-5.34-3.117-7.314-3.425-10.167 0 0-12.116.358-16.81 24.207-2.63 13.36-2.45 22.487-1.441 29.134-24.437 12.882-44.403 33.112-56.937 57.762L22.09 120.424c9.417 105.127 83.332 229.44 182.194 272.69 18.55 12.066 40.281 19.638 63.664 21.209a40.82 40.82 0 0 0 9.053 1.034 40.81 40.81 0 0 0 9.049-1.034c23.377-1.571 45.113-9.143 63.663-21.21 98.863-43.249 172.777-167.562 182.194-272.69z"/><path fill="#e60039" d="M352.514 391.85c29.647-13.493 56.996-34.25 80.965-59.547l-42.444 18.316a134.337 134.337 0 0 1-38.77 40.793l.25.438M162.962 350.618l-42.443-18.316c23.968 25.296 51.318 46.053 80.964 59.547l.249-.438a134.224 134.224 0 0 1-38.77-40.793M147.454 313.626l-67.973-33.907c8.645 13.423 18.102 26.28 28.284 38.327l48.946 21.12a132.55 132.55 0 0 1-9.257-25.54M397.284 339.168l48.947-21.125c10.182-12.046 19.643-24.903 28.284-38.322l-67.973 33.902a132.597 132.597 0 0 1-9.258 25.545M410.163 270.992l98.062-56.27c5.355-13.22 9.909-26.594 13.593-39.933l-114.912 75.257a133.81 133.81 0 0 1 3.257 20.946M147.091 250.048 32.175 174.786c3.689 13.34 8.243 26.713 13.597 39.938l98.063 56.27c.532-7.154 1.64-14.15 3.256-20.946M410.541 281.094c0 7.671-.656 15.183-1.899 22.502l73.87-36.846a394.652 394.652 0 0 0 20.503-39.774l-92.489 53.074.015 1.044M143.455 281.094l.015-1.044-92.489-53.074A393.67 393.67 0 0 0 71.49 266.75l73.865 36.846a134.262 134.262 0 0 1-1.9-22.502M157.888 220.654 22.09 120.424c1.253 14.005 3.655 28.354 7.11 42.807l120.107 78.662a132.784 132.784 0 0 1 8.581-21.239M396.109 220.654a132.784 132.784 0 0 1 8.581 21.24l120.107-78.663c3.45-14.453 5.857-28.802 7.11-42.807z"/><path fill="#00125e" d="m305.048 349.375 16.76-22.488a14.44 14.44 0 0 0 2.769-6.975l6.876-59.293-.408-.08c-5.548 20.574-20.488 71.957-26.36 88.647l.363.189M248.949 349.375l-16.76-22.488a14.44 14.44 0 0 1-2.769-6.975l-6.876-59.293.403-.08c5.553 20.574 20.493 71.957 26.365 88.647l-.363.189M302.293 261.338l.154.184 13.508-4.892.686-.07 1.591-.164 6.9-.7 8.03-9.527 1.183-1.402-1.183-1.909-2.49-4.012-3.366-.447 2.838-6.459-.189-.154c-2.664 1.94-18.872 14.13-27.662 29.552M251.704 261.338l-.154.184-13.508-4.892-.687-.07-1.59-.164-6.901-.7-8.03-9.527-1.183-1.402 1.183-1.909 2.491-4.012 3.366-.447-2.839-6.459.19-.154c2.664 1.94 18.872 14.13 27.662 29.552M265.188 323.255l.08-44.557c0-.577-.195-1.139-.558-1.586l-11.638-14.368-.07.044 7.045 16.273 4.728 44.213.413-.02M300.925 262.745l-11.64 14.368a2.488 2.488 0 0 0-.556 1.586l.08 44.557.412.02 4.728-44.22 7.045-16.267-.07-.044"/><path fill="#00125e" d="M310.572 379.022c-1.194-8.691-5.265-17.506-9.805-24.004l6.464-62.718.129-.443 8.964-17.555-.353-.214-12.996 17.874-.463 1.153-7.91 61.182c5.733 5.345 10.72 16.228 10.391 25.853 0 15.462-12.533 23.874-27.995 23.874-15.463 0-27.991-8.412-27.991-23.874-.333-9.625 4.653-20.508 10.386-25.853l-7.91-61.182-.458-1.153-13-17.874-.349.214 8.96 17.555.133.443 6.459 62.718c-4.54 6.498-8.606 15.313-9.805 24.004-1.188 8.65.478 17.172 7.359 23.148a26.16 26.16 0 0 0 7.233 7.826 25.933 25.933 0 0 0 7.87 3.823l.528.139a40.394 40.394 0 0 0 10.585 1.397c3.664 0 7.214-.482 10.584-1.397l.532-.14a25.85 25.85 0 0 0 7.866-3.822 26.096 26.096 0 0 0 7.234-7.826c6.885-5.976 8.546-14.498 7.358-23.148"/><path fill="#00125e" d="M253.637 377.99c0 8.279 6.438 13.902 14.577 14.354v-10.982a26.33 26.33 0 0 1-6.16-4.296v-.01a9.655 9.655 0 0 1-3.212-7.194c0-1.382.299-2.69.82-3.878l-.193-.154c-3.55 2.864-5.832 7.244-5.832 12.16M285.782 392.343c8.138-.452 14.577-6.075 14.577-14.353 0-4.917-2.282-9.292-5.832-12.161l-.194.154c.522 1.188.82 2.5.82 3.878a9.647 9.647 0 0 1-3.211 7.194l.005.01a26.633 26.633 0 0 1-6.165 4.3zM366.545 192.022c-2.217 8.78-10.217 13.17-11.485 13.816l-.015.204c34.166 26.703 44.76 73.617 28.747 125.074l-.239.02-3.724-7.542-.233.03a138.946 138.946 0 0 1-35.548 64.22l.154.198c35.578-22.288 59.238-61.833 59.238-106.907 0-34.797-14.1-66.303-36.895-89.113M335.138 317.565a68.5 68.5 0 0 0-.597-8.442l-.248.005c-2.476 19.5-13.165 36.225-28.334 46.844 2.535 4.147 4.614 8.596 6.105 13.046 14.289-12.524 23.248-30.964 23.074-51.453M238.468 378.474c.885-6.448 3.32-13.404 6.836-19.822-22.095-3.257-39.048-22.293-39.048-45.288l.005-.318c-8.358 6.936-13.847 17.207-14.393 28.782l-.155.119c-14.885-3.182-27.593-12.216-35.612-24.575l-.224.099c12.584 41.877 46.357 74.576 88.855 85.653l.124-.204c-5.543-6.155-7.75-14.527-6.388-24.446"/><path fill="#00125e" d="M351.844 263.878c-3.49-8.685-9.118-14.453-11.723-17.55l-4.62 41.34c4.018-.358 9.532-2.267 12.013-4.027 2.68-1.9 9.76-6.255 4.33-19.763M336.168 298.322l-.164.154c4.887 11.972 7.373 24.59 7.98 37.372a110.021 110.021 0 0 1-.866 17.655c-1.133 5.926-3.246 11.336-6.612 16.223l-.224-.1c1.382-6.065.656-13.707-.283-18.181l-.234-.01a58.804 58.804 0 0 1-2.76 6.175 59.774 59.774 0 0 1-14.925 18.48 54.534 54.534 0 0 1-3.704 2.814c1.094 8.546-.477 15.934-4.578 21.716l.149.184c1.004-.462 2.003-.925 2.988-1.417.532-.268 1.064-.537 1.596-.81a120.542 120.542 0 0 0 14.925-9.213 118.124 118.124 0 0 0 18.838-16.958c16.575-18.54 26.971-42.19 27.901-67.954.16-4.296.03-8.527-.343-12.688l-.214-.074c-10.157 10.137-25.997 13.04-39.47 6.632M244.729 163.247l-.005-.214-15.611-33.28c-3.038 6.74-4.43 17.192-4.778 22.775-.124 1.919-.234 4.35-.035 6.458 2.426 2.133 13.667 12.718 15.567 14.508l.064-.045.075-.05c3.515-2.476 4.827-6.488 4.723-10.152"/><path fill="#00125e" d="M384.356 287.115c-3.873-9.934-7.1-17.407-10.118-23.323l-.224.085c2.854 15.964-5.07 29.318-21.293 30.81-5.012.462-10.899-.344-17.58-2.75l.044-.258c20.001-.81 26.152-9.67 25.45-20.568-.715-11.018-13.712-25.138-27.627-40.073-12.39-13.299-22.04-29.248-24.009-32.584-2.535 26.648-22.86 48.15-49.011 52.422l-.1-.22c11.987-10.385 18.212-26.628 15.214-43.114-13.265 9.645-39.704 16.72-49.34 18.738l-.75.145c-7.945 1.665-16.109 6.99-20.474 11.912-16.78 19.743 4.47 45.685 7.194 48.852l-.134.204c-32.013-9.193-32.073-32.152-31.352-38.929l-.234-.08c-11.599 17.68-10.182 41.027 3.476 57.17l-.135.205c-12.215-3.734-21.77-13.553-25.122-25.933l-.228-.035a47.755 47.755 0 0 0-6.34 15.785l-.248-.01c-.547-4.738-.86-9.545-.86-14.432 0-34.798 14.1-66.303 36.895-89.114 1.88 7.443 7.91 11.729 10.48 13.255l-.004.204a45.833 45.833 0 0 0-16.561 19.186l.219.124c7.81-11.838 20.732-20.001 35.622-21.374l.01-.238c-12.116-2.118-21.935-10.913-25.525-22.453l.189-.139a51.968 51.968 0 0 0 29.87 9.402c12.922 0 24.75-4.699 33.868-12.474l-.15-.2c-3.54 2.193-7.72 3.546-12.334 3.924l-1.044.07 1.044-.692c8.228-5.807 8.685-17.028 5.493-23.626l-.427-.875-17.963-37.243c-3.67 2.859-6.409 8.994-8.253 15.288-2.844 9.685-3.585 20.603-2.382 27.196.672.571 6.732 6.22 10.874 10.102l.014-.005c2.019 1.88 3.963 3.7 5.564 5.2l-2.083 4.65c-21.16 4.707-30.015-3.188-30.015-3.188 5.032-3.56 10.351-6.731 15.89-9.53-1.85-1.72-3.54-3.282-4.818-4.465-1.183-6.737-1.556-16.163 1.238-30.363 4.694-23.849 16.81-24.207 16.81-24.207.308 2.859.925 4.828 3.425 10.167.522 1.114 10.063 21.12 16.497 34.614a129.366 129.366 0 0 1 23.998-2.238c8.189 0 16.198.77 23.959 2.228 6.856-14.374 16.039-33.61 16.506-34.604 2.5-5.34 3.117-7.308 3.426-10.167 0 0 12.11.358 16.809 24.207 3.778 19.186 1.765 29.657-.199 36.558a127.11 127.11 0 0 1 12.484 7.77 127.18 127.18 0 0 1 11.54 9.203c-.184.955-.438 1.88-.751 2.774-1.611 4.57-4.823 8.388-8.925 10.958-3.52 2.203-7.71 3.39-12.076 3.44l-.07.224c42.733 29.542 44.806 76.341 44.895 82.397l-.238.035m-52.378-152.956c-1.844-6.294-4.583-12.43-8.253-15.288l-18.912 39.207c2.043.453 4.062.96 6.065 1.512l13.971-29.836c3.038 6.742 4.43 17.192 4.778 22.77.124 1.92.233 4.351.035 6.46-2.437 2.142-9.472 8.754-11.286 10.47 1.72.63 3.43 1.297 5.11 2.003 4.142-3.883 10.203-9.53 10.874-10.102 1.203-6.593.462-17.51-2.382-27.196"/></svg>