<svg xmlns="http://www.w3.org/2000/svg" width="229.97374" height="277.65002" viewBox="0 0 229.97374 277.65002"><path fill="#1d428a" d="M117.933 11.133 109.547 0h-5.735v1.06l1.349.964v16.338h4.386V7.326l8.434 11.036h4.337V0h-4.385v11.133zM87.233 21.157l12.578-2.216-.626-3.76-8.049 1.398-.626-3.518 6.554-1.157-.289-1.639-.385-2.12-6.555 1.157-.578-3.326 7.325-1.253.338-3.952-11.904 2.121-.964.144-1.302.241.193 1.061 1.446.722 2.844 16.097zM66.316 28.001l6.458-2.361c5.976-2.17 8.29-7.085 6.458-12.145s-6.747-7.326-12.771-5.157l-5.687 2.072-.723.241-1.446.53.385 1.012 1.832.53Zm-.627-15.278 2.314-.819c2.361-.867 5.542-.53 6.892 3.23 1.35 3.71-.868 6.023-3.23 6.891l-2.313.82ZM49.737 37.11l11.374-6.603-1.109-4-8.289 4.771-7.133-12.386-2.988 1.687-1.012.627-1.012.578.53.916 1.446.144 8.193 14.266zM38.556 32.965c-3.422-3.952-9.205-4.626-13.736-.675s-4.675 9.736-1.253 13.688 9.205 4.675 13.736.723c4.578-3.952 4.723-9.784 1.253-13.736m-11.374 9.928c-2.12-2.458-2.12-5.494.289-7.566 2.362-2.073 5.446-1.687 7.567.77 2.12 2.41 2.12 5.543-.29 7.616s-5.494 1.59-7.566-.82M19.953 48.532l-3.615 4.627-.964 1.205-1.542 1.976 2.892 2.265 2.891-3.663a4.982 4.982 0 0 1-.626 5.35c-1.976 2.506-5.06 2.65-7.567.674-2.554-1.976-3.133-5.012-1.157-7.518a6.697 6.697 0 0 1 1.013-1.012 4.898 4.898 0 0 1 1.735-.868l1.494-1.927 1.88-2.41.096-.097c-.097 0-.193-.048-.29-.048a9.47 9.47 0 0 0-8.626 3.422 5.121 5.121 0 0 0-.434.53C3.422 55.761 4.386 61.497 8.53 64.726s9.929 2.795 13.64-1.928c.144-.145.24-.338.385-.482a9.402 9.402 0 0 0 .675-10.362 8.382 8.382 0 0 0-.53-.868 12.674 12.674 0 0 0-1.928-2.024c-.337-.193-.578-.385-.82-.53M144.488 13.88l1.59 1.494c1.35 1.253 2.024 1.88 1.735 2.844-.192.77-1.156 1.156-2.506.77a8.824 8.824 0 0 1-4.53-3.662l-1.35 4.627a11.916 11.916 0 0 0 5.205 2.843c3.519 1.012 6.94-.24 7.953-3.663.77-2.699-.675-4.53-2.651-6.361l-1.832-1.784c-.867-.819-1.06-1.35-.867-1.976.193-.77 1.108-1.06 2.265-.77a9.11 9.11 0 0 1 4.386 3.132l1.205-4.193a11.653 11.653 0 0 0-4.723-2.603c-3.808-1.108-6.892.579-7.711 3.519-.723 2.072-.097 4 1.83 5.783M159.717 28.242l4.242 1.976 6.12-13.205 5.254 2.458 1.59-3.47-14.699-6.844-1.591 3.47 5.253 2.41-6.169 13.205zM171.573 31.664l-1.108 1.639 3.18 2.12 1.35-1.494 2.024-1.012 2.844 1.88 2.843 1.88-.192 2.264-.868 1.784 3.18 2.168 1.11-1.638 4.192-16.917-2.168-1.494-1.735-1.156-.482-.338-1.446-.964-.627.916.482 1.253ZM185.31 26.7l-1.687 6.313-1.783-1.204-1.783-1.205ZM195.719 33.206l4.241 4-9.928 10.651 3.422 3.181 9.928-10.651 4.241 3.904 2.603-2.747-11.905-11.085-2.602 2.747zM209.117 57.255l4.097 5.254 2.988-2.314-4.097-5.253 2.651-2.072 4.578 5.879 3.615-1.542-7.518-9.639.048-.048-1.446-1.831-.819.674.048 1.784-12.82 10.072 7.856 10.073 2.988-2.362-5.012-6.458 2.843-2.217z"/><path fill="#1d428a" d="M223.335 133.837a110.27 110.27 0 1 1-110.27-110.27 110.277 110.277 0 0 1 110.27 110.27"/><path fill="#fdb927" d="M185.164 61.69A101.964 101.964 0 1 0 40.966 205.887 101.964 101.964 0 1 0 185.164 61.689M44.87 65.593a96.489 96.489 0 0 1 156.2 107.764c-11.712-3.952-23.23-8.386-34.508-13.399-1.494-.674-2.988-1.3-4.434-1.976l-4.386-2.072-2.217-1.06-2.168-1.06-4.338-2.17a120.375 120.375 0 0 1-4.29-2.264l-2.168-1.157c-.723-.386-1.398-.771-2.12-1.157l-4.242-2.361-4.193-2.458a274.01 274.01 0 0 1-32.146-21.929c-5.06-4.048-10.024-8.241-14.699-12.723-2.362-2.217-4.627-4.53-6.844-6.892-.53-.578-1.108-1.157-1.638-1.783-.53-.579-1.06-1.205-1.59-1.832s-1.061-1.205-1.543-1.831c0-.048-.048-.048-.048-.097-.193-7.084-.29-11.325-.29-11.325l-4.819-1.157v6.458h-4.096v-6.795l-5.157 1.253.048 2.458-2.41 1.3c.049 2.025.097 4.676.145 7.808-1.976 3.422-23.326 40.34-39.327 51.713a99.457 99.457 0 0 1-.916-13.157A95.343 95.343 0 0 1 44.87 65.593m126.704 115.523-9.928.337-8.096-20.964 1.59.77 4.434 2.218c1.494.723 2.988 1.397 4.482 2.12.434.193.867.386 1.253.579Zm-2.41-13.157c4 1.831 8.05 3.566 12.098 5.253l3.325 7.422-9.976.337Zm-10.602 13.59-10.17.338-10.554-29.977 2.024 1.157 2.169 1.204c1.446.82 2.892 1.59 4.337 2.41l3.326 1.783Zm-13.11.434-9.06.29-13.205-39.424c2.024 1.302 4.048 2.603 6.12 3.856l4.242 2.602.578.338Zm-12.096.434-9.494.338-15.664-50.268c3.615 2.7 7.326 5.302 11.037 7.856Zm-12.483.434-9.157.29-18.65-62.799c1.3 1.157 2.65 2.265 4 3.374a207.84 207.84 0 0 0 7.18 5.735Zm-12.096.386-10.121.337L76.389 104.1c1.927 2.168 3.952 4.24 6.024 6.313 2.169 2.169 4.386 4.241 6.603 6.314Zm-13.061.433-8.772.29-12.241-46.653a6583.358 6583.358 0 0 1-.964-32.098Zm-11.712.386-7.566.24a3673.4 3673.4 0 0 1-1.301-34.073Zm106.993 6.699c-.675.867-1.301 1.783-2.024 2.65l-112.15-2.216-.048-1.06Zm-3.326-10.17-2.554-5.783a318.624 318.624 0 0 0 12.82 4.916c-.097.145-.193.338-.29.482ZM68.34 110.03v5.928h-4.482v5.494h4.482v5.928h-4.482v5.494h4.482v11.133h-4.482v5.494h4.482v11.47h-4.482v5.495h4.482v18.024l-4.145.145v-83.907h4.097v3.711H63.81v5.494h4.53Zm-43.279 63.376 12.58-42.363a218.653 218.653 0 0 0 16.578-25.881l-22.555 80.485a93.76 93.76 0 0 1-6.603-12.241m-1.783-4.145a94.429 94.429 0 0 1-5.012-17.495 102.607 102.607 0 0 0 14.555-14.65Zm33.592-62.99c0 8.53-.145 18.795-.338 29.736l-12.964 49.4-8.964.288Zm-.627 42.122c-.337 12.241-.77 24.868-1.397 36.628l-8.29.289Zm-17.205 47.327 15.181.53c-.29 4.675-.626 9.109-1.012 13.254a101.101 101.101 0 0 1-8.386-7.47 101.934 101.934 0 0 1-5.783-6.314m74.027 34.556a96.037 96.037 0 0 1-34.604-6.362c-.434-6.603-.867-14.507-1.301-23.134l-8.82-2.988v21.543a69.76 69.76 0 0 1-4.145-2.313v-20.435l4.145.145v.145h4.482l8.145.289 101.547 3.614c-.386.434-.82.82-1.205 1.253a95.956 95.956 0 0 1-68.244 28.243"/><path fill="#1d428a" d="m145.886 251.287-1.109-5.687-6.121 1.205-6.94 1.35-6.12 1.205 1.108 5.638 6.073-1.156 3.132 16-6.072 1.205 1.06 5.639 6.169-1.157 6.94-1.349 6.072-1.205-1.108-5.687-6.073 1.205-3.132-16.001 6.121-1.205zM181.309 244.54c3.373 7.23.723 15.664-7.519 19.47-8.241 3.856-16.386.435-19.76-6.795s-.722-15.615 7.519-19.47c8.241-3.808 16.386-.434 19.76 6.795m-6.507 3.036c-2.072-4.433-6.361-6.313-10.699-4.289-4.386 2.024-5.639 6.506-3.566 10.94 2.072 4.386 6.313 6.362 10.699 4.338 4.338-2.024 5.639-6.603 3.566-10.989M201.454 221.648c-3.47-4.049-8.916-3.76-13.012-.241l-7.712 6.602-1.205 1.012-1.445 1.254 1.06 1.204 2.361-.192 16.146 18.94 5.35-4.578-6.603-7.712 1.542-1.3 11.904 3.18 6.458-5.494-13.784-3.23a8.762 8.762 0 0 0-1.06-9.445m-6.265 9.88-2.506 2.12-4.097-4.771 2.603-2.217c1.494-1.253 3.373-1.542 4.723.048 1.397 1.542.867 3.422-.723 4.82M227.527 220.587a17.46 17.46 0 0 1-6.843 5.832l-5.832-4.386a13.204 13.204 0 0 0 7.663-4.434c1.302-1.735 1.205-3.277.29-4-1.205-.916-2.459-.337-4.965.916l-2.988 1.398c-3.614 1.735-6.699 1.59-9.301-.386-3.711-2.795-4.386-8.049-.771-12.868a17.634 17.634 0 0 1 6.265-5.301l5.301 4a14.755 14.755 0 0 0-6.795 4.482c-1.06 1.397-1.109 2.843-.145 3.566.771.579 1.639.579 3.278-.193l3.518-1.686c3.663-1.784 7.084-2.844 10.458-.29 4.338 3.374 4.193 8.965.867 13.35M118.896 258.276c.193-5.35-4.048-8.772-9.446-8.964l-10.169-.338-1.542-.048-1.928-.048-.048 1.638 1.88 1.446-.868 24.869 7.037.24.337-10.168 2.024.048 6.651 10.41 8.482.29-8-11.664a8.804 8.804 0 0 0 5.59-7.711m-11.277 3.036-3.277-.096.24-6.266 3.422.097c1.976.048 3.519 1.108 3.47 3.229-.096 2.072-1.735 3.084-3.855 3.036M87.57 255.77c1.494-5.109-1.735-9.543-6.892-11.037l-9.735-2.892-1.494-.433-1.832-.53-.482 1.542 1.446 1.88-7.084 23.856 6.747 1.976 2.891-9.736 1.976.579 3.808 11.711 8.145 2.41-4.82-13.302a8.66 8.66 0 0 0 7.326-6.024m-11.663.144-3.133-.916 1.783-6.024 3.278.964c1.88.578 3.132 1.976 2.554 4-.627 1.976-2.458 2.555-4.482 1.976M54.412 233.407l-2.458-1.446-.964-.578-2.024-1.205-.82 1.398.675 1.542-18.266 15.037-1.542 2.602 5.012 2.94 1.88-2.41 2.988-1.735 4.434 2.603 4.434 2.603-.096 3.421-1.157 2.796 5.012 2.94 1.542-2.603 4.82-26.025Zm-8.29 14.073-2.795-1.639 7.567-6.458-1.976 9.736ZM37.736 222.612l-1.735-1.88-1.204 1.108.241 1.976-15.037 6.507 9.735-16.435-3.036-3.325-17.109 8.386 9.157-17.013-5.253-5.783-.675-.723-1.205 1.06.337 2.699L0 222.708l4.819 5.253 11.471-4.771-5.735 10.988 4.771 5.254 27.616-11.085-5.206-5.735z"/></svg>