<svg xmlns="http://www.w3.org/2000/svg" width="320.28049pt" height="268.66772pt" viewBox="0 0 320.28049 268.66771"><path d="M145.047 43.355c-3.164-4.105-6.824-5.707-7-13-.133-5.363 9.953-24.203 19.086-28.144 7.652-3.305 25.004-1.856 37.914-1.856h41c22.84 0 73.078-3.418 70 11-1.469 6.872-3.996 13.004-6.695 17.524-2.028 3.398-6.715 12.613-10.305 13.476-15.23 3.66-40.348-6.605-45 13 23.11 17.38 38.437 59.82 26.137 99.883.183.852 5.632-5.558 6.875-6.511 7.171-5.122 43.238-7.313 43.222 8.445-.008 10.101-8.636 20.328-14.234 29.183-11.567 18.293-21 35.583-34 56-4.067 6.383-13.684 23.961-20 25-11.277 1.852-46.36 1-66 1h-132c-23.277 0-52.04 3.375-54-12-1.035-8.113 15.64-32.023 21.98-35.515 8.399-4.63 21.696 1.453 32.02-1.485 6.773-1.93 12.129-13.953 17-22 5.566-9.203 14.027-21.417 14.027-24.625 0-4.117-4.61-14.761-4.863-24.937-1.34-53.617 28.203-88.266 64.836-104.438" style="fill:#542b82;fill-opacity:1;fill-rule:evenodd;stroke:none" transform="translate(0 -.002)"/><path d="M228.047 199.105c11.457-11.542 25.168-21.582 30-39.164-1.625-1.25-3.246-2.171-4.582-3.168-4.586 15.75-17.25 31.25-25.418 42.332M258.047 138.355h6c.156 7.157-2.344 11.657-4 17-2.168-1.25-3.75-2.375-5-3 1.75-5.375 2.25-7.917 3-14" style="fill:#fdb521;fill-opacity:1;fill-rule:evenodd;stroke:none" transform="translate(0 -.002)"/><path d="M170.047 62.355c2-4.062 12.875-20.687 13.719-28.93-1.07-6.843-19.871-3.253-30.72-4.07 2.25-5.75 4.794-11.207 9-15h128c2.731 2.633-5.585 10.91-8 15-9.456.082-23.874-.043-27.956.207-16.293 3.168-22.848 18.989-30.25 32.668-17.668 0-36.125.125-53.793.125zm141.676 94.375c-3.7-6.164-17.43-3.453-27.676-3.375-18.606 19.067-33 34.333-53 51.168-34.832 27.832-48.36 23-100 22.832 2.988-5.007 5.832-11.832 8.668-14 20.832 7.833 49.402 7.184 66.5-2.332 17.344-9.656 38.18-38.308 42.957-55.855-34.05 17.621-56.149 54.832-107.125 52.187.898-1.699 1.281-3.68 3-3.832 3.75-.336 10.902-.453 15-1.168 34.773-6.074 54.883-34.246 81-50 4.168-1.414 5.773-2.222 10-2 .75-2.687 2.5-6.437 2-12-22.668-.664-50.125.625-69.082.043 1.57-1.542 2.297-4.02 3.582-4.25 5.082-.917 20.23-.792 29.5-.792h37v-15c-13.223-1.118-22.48-5.395-30.938-10.75-4.218-2.672-10.562-8.126-12.812-10.813.75-1.25 1.937-2.313 2.75-3.563 9.375 7.938 20.336 19.79 41 20.126-2.64-22.696-12.32-38.348-22-54 7.125-13.626 13-20.458 23.582-23.793 5.336-.75 18.836.46 30.418-.208 2.668-8.417 11.668-14.792 11-24-.043-4.542-20.145-3.125-32.082-3.125-23.156 0-46.617.125-69.918.125-12.516 0-32.09-.921-35 0-5.899 1.868-16.567 22.766-14 25 3.133 5.364 32.789-.332 32 3-1.621 3.047-3.027 6.31-5 9-21.195 2.47-36.586 10.747-49 22h96c-2.86 5.81-5.695 11.641-10 16h-53c2.488-3.843 4.855-7.812 7-12h-45c-5.664 4.668-10.672 9.997-14 17 33.668.668 70-1.332 102 1-3.399 4.938-5.352 11.317-10 15h-52c-.504-4.5 8.398-9.144 4-11h-48c-2.54 5.125-4.797 10.54-7 16h101c-4.238 6.094-7.348 13.32-12 19h-53c.82-4.726 9.515-11.527 6-14-14.668 0-28.246.044-42.91.044-.758 2.59-2.805 11.324-3.09 18.957h90c-17.719 33.28-40.762 61.242-56 97 1 1.168 1.805 2.066 3.5 2.168 22 1.332 48.91 2.042 62.5-.168 12.539-2.04 31.957-13.188 48.668-26.168 10.61-8.243 19.441-17.075 27.332-24.832 10-9.832 19-21.625 19-21.625s16-.125 21-.375c-18.867 32.8-39.207 64.128-60 95-77-.668-156.668 1.332-232-1 5.234-6.098 9.05-13.614 14-20 9.523.273 23.215.335 28.59-.223 11.304-1.184 17.55-14.492 24.41-25.777 14.07-23.153 31.16-49.082 43-70-11.668 0-22.371.015-34.04.015.4 13.266 2.192 24.164 6.04 33.985-11.957 16.18-25.375 50.75-40.277 55.566-4.286.496-22.051.559-30.723.434-4.867 7.023-19.277 22.8-16 30 1.754 4.91 18.055 3 27 3h213c17.613-24.254 34.226-51.657 50-77 6.734-10.82 15.254-20.239 12.676-26.625" style="fill:#fdb521;fill-opacity:1;fill-rule:evenodd;stroke:none" transform="translate(0 -.002)"/><path d="M264.715 114.188c1.664 4.25.75 12.75.332 19.167h-6v-16c1.75-.5 4.168-2 5.668-3.168M246.047 72.355c5.504 4.883 16.148 22.813 17.918 38.082-1.75 1.086-3.25 1.836-5.168 2.336-3.82-14.18-6.656-28.511-12.75-40.418" style="fill:#fdb521;fill-opacity:1;fill-rule:evenodd;stroke:none" transform="translate(0 -.002)"/></svg>