<svg xmlns="http://www.w3.org/2000/svg" width="1000" height="1206.1841" viewBox="0 0 1000 1206.1841"><path d="M201.047 1142.518a25.428 25.428 0 0 0-25.34-25.34h-47.33v89.005h20.733v-27.853h19.267a11.497 11.497 0 0 1 11.1 11.309v16.335h20.732v-16.335a31.85 31.85 0 0 0-6.492-19.267 25.498 25.498 0 0 0 7.33-18.01v-9.844zm-25.34-4.607a4.648 4.648 0 0 1 4.607 4.607v10.052a5.185 5.185 0 0 1-5.236 5.236H149.11v-19.686h26.597z" style="fill:#12173f;stroke-width:6.10065"/><path d="M100.753 183.124v11.191h8.685v3.399H97.355v-14.59zM141.878 188.548h-7.483v-2.025h8.685v-3.399h-12.084v14.59h12.084v-3.399h-8.685v-2.368h7.483zM53.552 197.714l7.518-11.191h-6.694v-3.399h13.079l-7.518 11.191h6.728v3.399zM74.629 197.714l7.518-11.191h-6.694v-3.399h13.079l-7.518 11.191h6.729v3.399z" style="fill:#12173f" transform="scale(6.10065)"/><path d="M719.372 1117.178h20.733v89.005h-20.733zM256.126 1117.178h20.733v89.005h-20.733z" style="fill:#12173f;stroke-width:6.10065"/><path d="M256.126 1117.178h20.733v89.005h-20.733zM608.377 922.204h-75.812v162.932h37.487v-52.356h38.325a45.762 45.762 0 0 0 45.654-45.654v-19.268a45.762 45.762 0 0 0-45.654-45.654Zm8.167 64.921a8.178 8.178 0 0 1-8.167 8.168h-38.325V959.69h38.325a8.177 8.177 0 0 1 8.167 8.167z" style="fill:#12173f;stroke-width:6.10065"/><path d="M552.88 1085.136h-3.142v-145.76h58.639a28.511 28.511 0 0 1 28.482 28.482v19.267a28.511 28.511 0 0 1-28.482 28.482h-55.498zm0-72.67h55.497a25.294 25.294 0 0 0 25.34-25.34v-19.268a25.294 25.294 0 0 0-25.34-25.34H552.88z" style="fill:#5d76a9;stroke-width:6.10065"/><path d="M50.016 161.463H38.104v-4.153h14.109v-6.145H31.96v26.707h20.219v-6.11H38.104v-4.154h11.912z" style="fill:#12173f" transform="scale(6.10065)"/><path d="M50.016 164.278H35.289v-9.783h16.924v-.515H34.774v21.077h17.405v-.48h-16.89v-9.784h14.727z" style="fill:#5d76a9" transform="scale(6.10065)"/><path d="M467.016 922.413H337.8v162.723h37.487V959.9h31.204v125.445h37.487V959.9h23.037a8.178 8.178 0 0 1 8.167 8.168v117.068h37.487V968.068a45.762 45.762 0 0 0-45.654-45.655" style="fill:#12173f;stroke-width:6.10065"/><path d="M467.016 939.586H354.974v145.55h3.141V942.727h65.55v142.618h3.141V942.727h40.21a25.294 25.294 0 0 1 25.34 25.34v117.069h3.141V968.068a28.511 28.511 0 0 0-28.481-28.482" style="fill:#5d76a9;stroke-width:6.10065"/><path d="M129.215 922.413H0v162.723h37.487V959.9H68.69v125.445h37.487V959.9h23.037a8.177 8.177 0 0 1 8.167 8.168v117.068h37.487V968.068a45.762 45.762 0 0 0-45.654-45.655" style="fill:#12173f;stroke-width:6.10065"/><path d="M129.215 939.586H17.173v145.55h3.141V942.727h65.55v142.618h3.141V942.727h40.21a25.294 25.294 0 0 1 25.34 25.34v117.069h3.141V968.068a28.511 28.511 0 0 0-28.481-28.482" style="fill:#5d76a9;stroke-width:6.10065"/><path d="M817.173 922.204h37.487v162.932h-37.487z" style="fill:#12173f;stroke-width:6.10065"/><path d="M834.346 922.204h3.14v162.932h-3.14z" style="fill:#5d76a9;stroke-width:6.10065"/><path d="M123.856 177.872h6.11v-26.707h-6.11v10.298h-7.655v-10.298h-6.111v26.707h6.111v-10.264h7.655z" style="fill:#12173f" transform="scale(6.10065)"/><path d="M126.637 177.872h.514v-26.707h-.514v13.113h-13.251v-13.113h-.481v26.707h.481v-13.079h13.251z" style="fill:#5d76a9" transform="scale(6.10065)"/><path d="M72.67 1206.183H25.34A25.428 25.428 0 0 1 0 1180.843v-38.325a25.428 25.428 0 0 1 25.34-25.34h21.99a25.428 25.428 0 0 1 25.34 25.34v4.189H51.937v-4.189a4.648 4.648 0 0 0-4.607-4.607H25.34a4.648 4.648 0 0 0-4.607 4.607v38.325a4.648 4.648 0 0 0 4.607 4.607h26.597v-8.168H39.581v-20.733H72.67z" style="fill:#12173f;stroke-width:6.10065"/><path d="M72.67 1206.183H25.34A25.428 25.428 0 0 1 0 1180.843v-38.325a25.428 25.428 0 0 1 25.34-25.34h21.99a25.428 25.428 0 0 1 25.34 25.34v4.189H51.937v-4.189a4.648 4.648 0 0 0-4.607-4.607H25.34a4.648 4.648 0 0 0-4.607 4.607v38.325a4.648 4.648 0 0 0 4.607 4.607h26.597v-8.168H39.581v-20.733H72.67zM974.031 1206.183h-22.199a25.428 25.428 0 0 1-25.34-25.34v-3.142h20.733v3.142a4.648 4.648 0 0 0 4.608 4.607h22.198a4.648 4.648 0 0 0 4.608-4.607v-3.77l-38.534-10.262a19.105 19.105 0 0 1-13.403-18.22v-5.445a25.964 25.964 0 0 1 25.968-25.968h21.57a25.428 25.428 0 0 1 25.341 25.34v4.189h-20.733v-4.189a4.648 4.648 0 0 0-4.607-4.607h-21.57a5.185 5.185 0 0 0-5.237 5.235v4.189l38.535 10.261a19.105 19.105 0 0 1 13.403 18.22v5.027a25.294 25.294 0 0 1-25.34 25.34M953.927 1084.926h-76.86V1033.2h37.488v14.45h39.371a8.493 8.493 0 0 0 8.587-8.586v-7.54l-61.152-18.848a34.117 34.117 0 0 1-24.293-32.67v-11.728a46.074 46.074 0 0 1 46.073-46.073H1000v53.822h-37.487v-16.335H923.14a8.493 8.493 0 0 0-8.586 8.586v9.424l60.942 18.64a34.367 34.367 0 0 1 24.503 33.088v9.424a46.208 46.208 0 0 1-46.074 46.073" style="fill:#12173f;stroke-width:6.10065"/><path d="M953.927 1067.754H894.24v-34.765h3.141v31.623h56.545a25.74 25.74 0 0 0 25.759-25.759v-9.424a14.58 14.58 0 0 0-10.262-13.822l-63.037-19.476a17.025 17.025 0 0 1-12.146-16.335v-11.728a28.958 28.958 0 0 1 28.9-28.9h59.686v36.649h-3.35v-33.508h-56.545a25.74 25.74 0 0 0-25.76 25.759v11.728a13.95 13.95 0 0 0 9.844 13.403l63.036 19.476a17.532 17.532 0 0 1 12.356 16.754v9.424a28.342 28.342 0 0 1-28.481 28.9" style="fill:#5d76a9;stroke-width:6.10065"/><path d="M895.497 200.32a132.995 132.995 0 0 0 16.545-62.828 138.605 138.605 0 0 0-62.2-112.67C799.163-9.524 723.352-14.34 669.53 49.952a342.011 342.011 0 0 0-169.215 21.153A341.56 341.56 0 0 0 331.1 49.953C277.277-14.34 201.257-9.524 150.785 24.822a138.076 138.076 0 0 0-62.199 112.67 135.486 135.486 0 0 0 16.545 62.827C64.503 258.75 36.44 328.277 36.44 398.853c0 85.026 36.44 129.005 50.052 147.854l10.89-10.89c38.534 98.01 104.293 150.785 183.875 198.743 0 0 1.675-9.634 3.35-18.43 85.655 74.137 126.492 55.917 215.498 156.65 88.795-100.314 130.68-83.142 215.497-156.65 1.675 8.587 3.35 18.43 3.35 18.43 35.393-21.361 135.289-74.974 183.875-198.743l10.89 10.89c8.377-11.519 50.053-58.01 50.053-147.854.418-70.576-27.645-139.895-68.273-198.534" style="fill:#707271;stroke-width:6.10065"/><path d="M870.995 201.576C952.67 76.13 767.33-54.34 677.696 71.942a318.523 318.523 0 0 0-177.382 21.78 318.523 318.523 0 0 0-177.382-21.78C233.089-54.34 47.958 76.131 129.634 201.576c-92.985 127.748-83.77 253.822-40.629 313.089l17.801-17.801s25.34 123.14 159.372 204.188l4.817-26.597c82.513 88.168 157.906 86.074 229.11 166.702 71.204-80.419 146.597-78.534 229.11-166.702l4.816 26.597c134.032-80.838 159.372-204.188 159.372-204.188l17.801 17.8c43.77-59.476 52.984-185.13-40.21-313.088" style="fill:#12173f;stroke-width:6.10065"/><path d="M501.152 670.476s-64.293 1.047-73.927 6.911c0 0-11.1 19.058 73.927 18.848 80.837-.419 68.9-15.078 69.529-17.382a259.136 259.136 0 0 0-69.53-8.377M445.445 595.712s10.052-29.11 20.733-19.895c14.87 12.774 34.136 38.743 34.136 41.466v34.555l-23.455 1.256a528.362 528.362 0 0 0-56.964 10.681C360 515.502 393.298 403.46 409.215 363.251c-59.268 12.775-68.901-58.43-68.901-58.43a46.915 46.915 0 0 1 25.55 6.283 296.552 296.552 0 0 1 49.423 32.042c4.398 3.351 8.377 6.702 12.147 9.843 40.419 33.927 73.089 27.016 73.089 27.016v145.13c-.209.21-117.905-9.004-55.078 70.577M555.811 595.712c74.974-76.021-47.33-71.623-55.078-70.367 12.565.629 107.225 1.257 55.078 70.367" style="fill:#5d76a9;stroke-width:6.10065"/><path d="M605.445 365.764c67.434 181.571-18.01 298.43-18.639 299.058 52.984-139.058 19.058-254.45-4.188-297.382a189.557 189.557 0 0 1-26.178.419 241.69 241.69 0 0 0 29.529-21.571c.837-.838 1.675-1.466 2.722-2.513a172.022 172.022 0 0 1 50.471-32.251 108.097 108.097 0 0 1 25.76-6.493s-6.283 59.896-59.477 60.733" style="fill:#5d76a9;stroke-width:6.10065"/><path d="M712.25 130.79s27.436-68.69 111.833-52.146c0 0-77.486-50.89-131.309 41.047 0 0-77.277-36.23-192.46 13.613 0 0-108.272-38.116-190.576-16.545 0 0-47.958-83.35-115.602-49.005-67.644 34.345-32.251 113.508-20.524 134.24 0 0-112.042 114.137-69.947 255.08l22.617-28.064s32.252 153.717 115.184 202.094l5.026-37.696s86.702 104.503 188.482 148.9c9.633 4.608 63.665 31.414 65.34 44.608v-73.089s-70.576 5.864-89.424-26.806c-12.775-22.2-94.031-167.12-53.822-318.953 0 0-39.162-5.864-46.492-71.832a138.356 138.356 0 0 0-65.34-11.31s64.712-20.314 125.445 3.142c60.733 23.455 77.068 83.35 118.115 56.963l11.309-168.586 12.356 168.586c41.047 26.388 57.382-33.298 118.115-56.963 60.733-23.456 125.654-3.141 125.654-3.141a194.233 194.233 0 0 0-67.644-26.597c-34.764-6.911-85.864 15.288-85.864 15.288s7.12-47.749 30.367-73.299c20.105-21.99 65.34-26.806 79.162-69.529zM188.273 188.8c-2.513-23.036 26.597-45.654 26.597-45.654-11.937-12.356-32.88-1.675-32.88-1.675 18.849-37.068 61.362-18.848 61.362-18.848-16.126-19.686-50.053-18.43-50.053-18.43 42.095-41.884 92.985 21.99 92.985 21.99-45.236 10.262-98.01 62.618-98.01 62.618z" style="fill:#5d76a9;stroke-width:6.10065"/><path d="M415.288 343.356c-6.492-2.094-17.173 4.607-23.246 16.335-20.105-5.864-27.016-27.644-26.178-48.377a296.551 296.551 0 0 1 49.424 32.042M612.984 359.69c-6.283-12.355-17.8-19.057-24.293-15.915a172.022 172.022 0 0 1 50.471-32.252c.838 20.733-6.073 42.513-26.178 48.168" style="fill:#fb2;stroke-width:6.10065"/></svg>