<svg xmlns="http://www.w3.org/2000/svg" width="219.91632" height="219.91632" viewBox="0 0 219.91632 219.91632"><path fill="#fff" d="M219.916 109.958A109.958 109.958 0 1 1 109.958 0a109.938 109.938 0 0 1 109.958 109.958"/><path fill="#1d428a" d="M215.87 109.958A105.911 105.911 0 1 1 109.957 4.048a105.913 105.913 0 0 1 105.911 105.91"/><path fill="#fff" d="m20.388 128.017 2.176 6.911h7.331l-5.918 4.314 2.138 6.796-5.727-4.161-5.803 4.161 2.176-6.796-5.956-4.314h7.33l2.253-6.911zM199.566 128.017l2.177 6.911h7.368l-5.956 4.314 2.177 6.796-5.766-4.161-5.765 4.161 2.177-6.796-5.957-4.314h7.293l2.252-6.911zM46.121 165.052l2.177 6.872h7.33l-5.956 4.353 2.176 6.796-5.727-4.162-5.803 4.162 2.176-6.796-5.956-4.353h7.331l2.252-6.872zM176.239 165.052l2.176 6.872h7.33l-5.918 4.353 2.177 6.796-5.765-4.162-5.804 4.162 2.215-6.796-5.956-4.353h7.292l2.253-6.872zM86.248 189.143l2.139 6.911h7.368l-5.956 4.314 2.176 6.796-5.727-4.161-5.803 4.161 2.176-6.796-5.956-4.314h7.331l2.252-6.911zM135.004 189.143l2.176 6.911h7.331l-5.956 4.314 2.176 6.796-5.727-4.161-5.803 4.161 2.176-6.796-5.956-4.314h7.331l2.252-6.911z"/><path fill="#fff" d="M189.372 110.454a79.414 79.414 0 1 1-79.414-79.414 79.402 79.402 0 0 1 79.414 79.415"/><path fill="#1d428a" d="M35.278 126.07a76.313 76.313 0 0 0 90.296 59.064 74.82 74.82 0 0 0 48.221-32.91 77.64 77.64 0 0 0 10.843-57.385 76.364 76.364 0 0 0-90.257-59.103 76.313 76.313 0 0 0-59.103 90.334"/><path fill="#fff" d="M135.92 51.008c.268 2.978-1.145 5.88-4.123 8.629-14.317-10.5-27.948-15.654-41.31-15.73a54.529 54.529 0 0 0-8.362.649 72.776 72.776 0 0 1 13.21-4.123 71.281 71.281 0 0 1 35.431 1.565c2.482 2.405 4.887 5.536 5.155 9.01M120.992 174.253c15.043-13.821 22.03-43.41 26.192-61.088l.649-2.749c2.138-9.01 5.918-15.73 10.003-19.739 15.08 23.443 13.057 47.649 9.24 62.844a71.707 71.707 0 0 1-57.156 28.483 48.946 48.946 0 0 0 11.072-7.75M148.329 73.84c6.109-5.116 10.996-9.01 14.47-11.569a71.226 71.226 0 0 1 16.074 29.017c-2.825-3.78-6.414-7.369-10.309-8.17-3.36-.688-6.796.267-10.041 2.558a97.957 97.957 0 0 0-10.194-11.836M39.822 107.247C46.77 88.616 72.236 80.98 81.82 78.117l.42-.115a116.601 116.601 0 0 1 12.904-2.597c12.332-2.1 27.566-4.696 36.768-11.568a139.883 139.883 0 0 1 11.492 9.812c-20.808 17.677-52.994 47.381-87.318 83.843a70.88 70.88 0 0 1-16.112-32.415 70.107 70.107 0 0 1-1.527-14.584 538.062 538.062 0 0 1 1.375-3.246"/><path fill="#fff" d="M145.924 71.511a143.755 143.755 0 0 0-11.454-9.85c3.474-3.398 5.078-7.064 4.734-10.958a14.071 14.071 0 0 0-2.367-6.49 72.988 72.988 0 0 1 23.633 15.653c-3.589 2.673-8.514 6.605-14.546 11.645M129.124 61.775c-8.628 5.956-22.907 8.4-34.552 10.347a129.868 129.868 0 0 0-13.287 2.672l-.42.115c-9.201 2.749-32.338 9.66-41.883 26.344a71.519 71.519 0 0 1 11.11-29.971 74.955 74.955 0 0 1 19.166-20.045c16.952-7.14 35.966-6.643 59.866 10.538M167.877 86.363c5.002 1.03 10.347 9.43 12.905 14.241a70.763 70.763 0 0 1-8.667 45.205c.382-2.405.687-4.963.916-7.636a79.197 79.197 0 0 0-12.637-49.71c2.596-1.833 5.192-2.558 7.483-2.1M145.81 75.978a88.315 88.315 0 0 1 10.117 11.836c-4.887 4.658-9.049 12.37-11.301 21.839l-.65 2.787c-4.085 17.334-10.919 46.312-25.198 59.408a41.873 41.873 0 0 1-16.838 9.736 71.364 71.364 0 0 1-31.154-11.263A72.83 72.83 0 0 1 58.3 159.974c34.667-36.882 66.967-66.548 87.508-83.996"/><path fill="#fff" d="m129.697 131.683 1.947-.535c1.184-.305 1.948-.687 1.948-2.405 0-1.413-.382-3.971-2.1-3.971-1.795 0-1.795 3.054-1.795 4.696ZM106.446 130.613c0-6.108-.23-11.377-4.353-11.377-3.36 0-3.97 5.269-3.97 11.377s-.192 11.416 3.97 11.416c3.474-.038 4.353-5.307 4.353-11.416"/><path fill="#fff" d="m129.697 131.683 1.947-.535c1.184-.305 1.948-.687 1.948-2.405 0-1.413-.382-3.971-2.1-3.971-1.795 0-1.795 3.054-1.795 4.696ZM97.626 116.601h.076c1.986-3.092 5.766-4.581 9.469-4.581 8.4 0 13.554 7.254 13.554 16.99 0 11.53-7.827 18.403-17.487 18.403-14.852 0-20.273-11.989-20.273-25.886 0-15.998 6.949-29.208 24.244-29.208 6.758 0 12.294 4.353 12.294 10.996a6.229 6.229 0 0 1-6.529 6.414c-4.658 0-6.147-3.894-6.834-7.33-.267-1.451.267-4.658-2.138-4.658-5.04 0-5.841 9.85-6.07 13.477Z"/><path fill="#fff" d="M106.446 130.613c0-6.108-.23-11.377-4.353-11.377-3.36 0-3.97 5.269-3.97 11.377s-.192 11.416 3.97 11.416c3.474-.038 4.353-5.307 4.353-11.416M16.38 92.93c2.825.344 3.97 2.329 3.55 5.994l-.306 2.673 1.528.19c1.947.23 2.672.192 2.901-1.374l1.795.23-.84 7.253-1.795-.229c.153-1.603-.572-1.794-2.52-2.023l-5.65-.65c-1.947-.228-2.673-.19-2.902 1.375l-1.794-.229.954-7.941c.458-3.895 2.177-5.613 5.078-5.27Zm1.526 7.712c.268-2.405-.42-3.703-2.138-3.894-1.489-.191-2.558.764-2.787 2.558-.153 1.26.306 1.527 1.68 1.68l3.13.382c.039-.23.077-.458.115-.726ZM26.993 84.912c.573-1.489-.038-1.87-1.832-2.634L19.93 80.1c-1.795-.763-2.52-.916-3.169.535l-1.68-.687 2.825-6.72 1.642.687c-.573 1.49.038 1.871 1.833 2.635l1.336.572 2.1-5.04-1.336-.572c-1.795-.764-2.52-.916-3.17.535l-1.641-.688 2.825-6.72 1.68.688c-.572 1.489.038 1.87 1.833 2.634l5.23 2.177c1.795.763 2.52.916 3.17-.535l1.68.687-2.826 6.72-1.642-.687c.573-1.49-.038-1.871-1.832-2.635l-2.291-.954-2.1 5.04 2.29.954c1.795.764 2.52.916 3.17-.535l1.641.688-2.825 6.72ZM34.018 49.214c-.916 1.298-.42 1.833 1.146 3.016l4.543 3.398c1.565 1.184 2.215 1.49 3.207.267l1.451 1.07-4.352 5.803-1.451-1.07c.916-1.297.42-1.832-1.184-3.015l-4.543-3.398c-1.566-1.184-2.215-1.528-3.207-.268l-1.451-1.069 4.352-5.803ZM50.436 50.054l-1.146-1.375c1.184-1.069.802-1.68-.458-3.169l-3.665-4.352c-1.26-1.489-1.795-1.985-3.055-.993l-1.145-1.374 5.574-4.658 1.146 1.374c-1.184 1.07-.84 1.68.42 3.207l4.085 4.85c.955 1.106 1.374 1.297 2.52.343 1.527-1.298 2.176-3.589 1.642-6.49l1.603-.344 1.642 5.345ZM67.731 36.73l-.763-1.643c1.374-.84 1.298-1.756 1.26-3.36l-.382-11.263L70.9 19.09l8.4 8.209c.954.916 1.489 1.374 2.71.954l.764 1.642-6.643 3.016-.726-1.603a.29.29 0 0 0 .153-.077c.916-.42 1.26-.802.993-1.374a1.721 1.721 0 0 0-.382-.535l-1.527-1.527-4.276 1.947.267 2.1a1.611 1.611 0 0 0 .114.458c.306.65.917.687 1.948.23l.725 1.603Zm5.422-10.271-3.131-3.36.267 4.696ZM90.181 25.848c1.565-.267 1.604-.993 1.336-2.94l-.801-5.613c-.268-1.947-.497-2.634-2.1-2.443l-.268-1.794 7.33-1.031c5.652-.802 9.011 1.412 9.699 6.07.649 4.696-1.948 7.713-7.598 8.553l-7.33 1.03Zm5.269-2.596c.19 1.45.458 1.832 1.985 1.603 2.902-.42 4.505-2.71 3.97-6.223-.495-3.513-2.634-5.269-5.573-4.849-1.528.229-1.642.649-1.451 2.1ZM115.8 23.71c1.565.19 1.832-.497 2.1-2.444l.801-5.612c.268-1.947.268-2.673-1.298-2.94l.268-1.795 12.103 1.757 1.336 4.696-1.451.496c-1.184-2.443-2.864-3.856-5.116-4.161-1.451-.23-1.718.19-1.91 1.603l-.305 2.1.688.115c1.527.229 1.985-.191 2.329-1.986l1.527.23-.955 6.566-1.527-.229c.038-1.718-.458-2.596-1.642-2.749l-.687-.114-.496 3.398c-.191 1.412-.076 1.87 1.413 2.061 2.138.306 4.658-.725 6.643-3.092l1.26.954-2.94 4.696-12.409-1.832ZM138.631 30.162l.726-1.642c1.489.611 1.87 0 2.672-1.832l2.291-5.193c.802-1.794.993-2.481-.458-3.169l.725-1.641 6.644 2.901-.726 1.642c-1.489-.61-1.87 0-2.672 1.794l-2.558 5.804c-.573 1.336-.535 1.794.84 2.405 1.832.802 4.2.382 6.528-1.412l1.031 1.26-4.047 3.856ZM176.01 40.967c-1.795 2.214-4.086 2.138-6.987-.19l-2.1-1.68-.955 1.183c-1.222 1.527-1.603 2.176-.382 3.207l-1.145 1.413-5.65-4.582 1.145-1.413c1.26.955 1.832.497 3.054-1.03l3.55-4.43c1.223-1.527 1.566-2.176.383-3.206l1.145-1.413 6.223 5.04c3.017 2.405 3.551 4.81 1.718 7.101Zm-7.37-2.863c1.872 1.527 3.36 1.603 4.43.267.954-1.184.725-2.558-.688-3.704-.992-.801-1.45-.572-2.329.497l-1.985 2.443c.23.191.42.344.573.497ZM177.117 54.215c.954 1.299 1.603.993 3.207-.152l4.658-3.246c1.603-1.107 2.138-1.641 1.26-2.978l1.489-1.03 4.161 5.956-1.45 1.03c-.955-1.298-1.604-.992-3.208.153l-1.183.84 3.13 4.467 1.184-.84c1.604-1.107 2.138-1.641 1.26-2.978l1.45-1.03 4.162 5.956-1.489 1.03c-.954-1.298-1.603-.992-3.207.153l-4.658 3.245c-1.603 1.108-2.138 1.642-1.26 2.978l-1.489 1.031-4.161-5.956 1.45-1.03c.955 1.297 1.604.992 3.208-.153l2.023-1.413-3.13-4.467-2.024 1.413c-1.604 1.107-2.138 1.641-1.26 2.978l-1.45 1.03-4.162-5.956ZM203.575 79.223c-.61-1.489-1.336-1.336-3.169-.649l-5.307 2.024c-1.832.687-2.443 1.069-1.947 2.596l-1.68.65-2.596-6.797 1.68-.649c.61 1.489 1.336 1.298 3.169.61l5.307-2.023c1.833-.687 2.482-1.069 1.947-2.558l1.68-.649 2.596 6.796ZM194.069 91.823l1.794-.23c.382 1.566 1.298 1.757 2.825 2.177l10.882 2.94.42 3.321-10.309 5.613c-1.184.649-1.756.993-1.718 2.329l-1.795.229-.954-7.216 1.756-.23v.154c.115.992.42 1.45 1.031 1.374a2.205 2.205 0 0 0 .65-.229l1.908-1.03-.61-4.659-2.1-.382a2.177 2.177 0 0 0-.497-.038c-.687.077-.916.687-.802 1.795l-1.756.229Zm8.246 8.17 4.124-2.023-4.544-1.108ZM154.59 119.732a5.035 5.035 0 0 0-3.818 1.756c-.114-.229-.19-.458-.305-.649l-.802-1.565-11.416 3.36v6.261h2.1c.191 0 .306.039.344 0a6.626 6.626 0 0 1 .267 2.673v7.254l-2.1.306V146h15.807v-6.872l-2.062-.306v-2.138a28.71 28.71 0 0 1 .573-4.925 6.697 6.697 0 0 0 2.062.305c2.825 0 4.81-2.558 4.81-6.185.038-3.665-2.176-6.147-5.46-6.147Z"/><path fill="#fff" d="M174.406 127.025a3.284 3.284 0 0 1-.191-.993c0-1.87-.764-6.223-7.674-6.223-3.818 0-11.34 2.94-11.34 9.774a8.996 8.996 0 0 0 1.833 5.727 5.317 5.317 0 0 0-2.444 4.734c0 2.443 1.222 6.567 9.507 6.567 7.102 0 11.149-3.665 11.149-10.08.038-6.108-.497-8.132-.84-9.506ZM90.868 90.296a2.294 2.294 0 0 0-1.718-.802c-1.03 0-1.87.649-2.863 1.718a17.701 17.701 0 0 1-13.172 5.46c-6.873 0-14.127-3.17-19.892-8.667a2.369 2.369 0 0 0-1.68-.688c-2.825 0-3.55 4.506-3.55 4.582v22.64l1.794.268a44.161 44.161 0 0 0 18.097-.65c-5.803 5.193-18.861 19.32-18.67 32.76.038 2.481 1.565 2.748 2.214 2.748a2.49 2.49 0 0 0 1.718-.725c.115-.076.23-.191.344-.267a14.432 14.432 0 0 1 8.285-2.177 18.333 18.333 0 0 1 7.674 1.566 3.079 3.079 0 0 0 1.413.382 2.278 2.278 0 0 0 1.68-.726 2.93 2.93 0 0 0 .572-2.443c-.954-9.774 1.184-20.427 5.346-26.574l.61-.916c3.551-5.23 10.92-16.15 12.294-25.16a2.734 2.734 0 0 0-.496-2.33ZM143.442 133.553l-.115-1.718a16.586 16.586 0 0 0-.496-3.207l-.076-1.985-.382.572a10.848 10.848 0 0 0-10.423-7.483c-7.33 0-12.447 5.804-12.447 14.089 0 6.376 3.742 12.79 12.027 12.79a13.207 13.207 0 0 0 11.416-6.262l.305-.534-.229-6.147Zm-8.896 3.971a1.913 1.913 0 0 1-1.68-1.107l4.047-1.107a7.83 7.83 0 0 1-2.367 2.214Z"/><path fill="#fff" d="M116.143 113.509c-.42-.573-.878-1.26-1.26-1.833a8.16 8.16 0 0 0 6.758-8.323c0-7.483-6.185-13.096-14.394-13.096-16.493 0-26.382 11.722-26.382 31.308 0 17.792 8.17 27.986 22.374 27.986 11.53 0 19.586-8.438 19.586-20.503.038-6.032-4.01-11.76-6.682-15.54Z"/><path fill="#1d428a" d="M134.584 139.662c-2.558 0-4.085-2.329-4.314-4.696l10.996-2.978c-.306-5.383-3.436-10.118-9.278-10.118-6.223 0-10.347 4.85-10.347 11.989 0 5.574 3.207 10.652 9.927 10.652a10.97 10.97 0 0 0 9.583-5.23l-2.176-2.597c-1.031 1.68-2.29 2.978-4.39 2.978Zm-4.849-10.156c0-1.641 0-4.696 1.795-4.696 1.68 0 2.1 2.558 2.1 3.97a2.14 2.14 0 0 1-1.947 2.406l-1.948.535Z"/><path fill="#1d428a" d="M152.643 143.9h-11.606v-2.94l2.1-.305v-9.087c0-3.245-.42-4.81-2.75-4.81v-2.559l8.247-2.405a15.295 15.295 0 0 1 1.375 5.994h.076c.84-2.482 1.871-5.956 4.544-5.956 2.367 0 3.398 1.833 3.398 4.047 0 2.253-.993 4.085-2.711 4.085a7.926 7.926 0 0 1-2.75-.687c-1.488-.496-1.985 6.033-1.985 7.407v3.97l2.062.306v2.94Z"/><path fill="#1d428a" d="M172.153 126.07c0 1.795-1.565 2.71-3.207 2.71a4.032 4.032 0 0 1-3.78-3.55c-.84 0-1.45.42-1.45 1.87 0 3.36 9.506.955 9.506 9.47 0 6.376-4.62 7.98-9.048 7.98-2.711 0-7.407-.344-7.407-4.468 0-1.87 1.03-3.283 2.901-3.283 2.864 0 3.36 2.634 3.857 4.505a.861.861 0 0 0 .954.573c1.527 0 2.634-.611 2.634-1.642 0-3.818-9.735-2.33-9.735-10.652 0-5.27 6.223-7.636 9.24-7.636 3.397 0 5.535 1.145 5.535 4.123M107.247 112.058c-3.703 0-7.483 1.49-9.468 4.582h-.077l.382-5.346c.23-3.627 1.031-13.477 6.07-13.477 2.406 0 1.872 3.207 2.139 4.658.649 3.398 2.138 7.33 6.834 7.33a6.25 6.25 0 0 0 6.529-6.414c0-6.643-5.536-10.996-12.294-10.996-17.296 0-24.244 13.21-24.244 29.208 0 13.898 5.383 25.886 20.273 25.886 9.66 0 17.487-6.872 17.487-18.403-.077-9.774-5.231-17.028-13.63-17.028Zm-5.154 29.971c-4.123 0-3.97-5.307-3.97-11.415s.572-11.378 3.97-11.378c4.162 0 4.353 5.269 4.353 11.378.038 6.108-.84 11.415-4.353 11.415Z"/><path fill="#c8102e" d="M50.092 92.09v20.617c11.53 1.718 25.313.573 35.087-13.668.42-.611.65-.191.382.343-2.71 5.536-9.163 10.653-14.737 15.043-5.345 4.2-19.701 19.243-19.51 32.491 0 1.031.038.726.954.077 4.353-3.246 12.867-3.322 18.098-.84.725.343.801.229.687-.688-.993-10.27 1.298-21.457 5.689-27.985 3.016-4.506 11.186-16.112 12.599-25.2.153-.954-.344-.8-1.527.459-9.24 9.774-25.924 9.507-36.73-.802-.648-.725-.954-.42-.992.153"/><circle cx="70.10722" cy="79.72921" r="19.77635" fill="#fff"/><path fill="#1d428a" d="m70.098 60.668.649 2.1H73l-1.833 1.298.649 2.062-1.718-1.26-1.794 1.26.687-2.062-1.833-1.298h2.253l.687-2.1zM83.232 68.342l.687 2.062h2.253l-1.833 1.336.649 2.062-1.756-1.26-1.756 1.26.687-2.062-1.832-1.336h2.252l.649-2.062zM77.582 62.424l.687 2.062h2.252l-1.832 1.336.649 2.062-1.718-1.26-1.757 1.26.65-2.062-1.833-1.336h2.253l.649-2.062zM85.408 75.558l.65 2.1h2.252l-1.832 1.336.687 2.062-1.757-1.26-1.756 1.26.649-2.062-1.794-1.336h2.214l.687-2.1zM84.454 83.232l.687 2.1h2.215l-1.795 1.336.649 2.062-1.756-1.298-1.756 1.298.649-2.1-1.795-1.298h2.253l.649-2.1zM80.216 89.341l.649 2.1h2.253l-1.795 1.336.649 2.062-1.718-1.26-1.794 1.26.687-2.062-1.833-1.336h2.253l.649-2.1zM73.573 92.777l.687 2.1h2.214l-1.832 1.336.687 2.062-1.756-1.26-1.757 1.26.649-2.062-1.794-1.336h2.214l.688-2.1zM56.697 67.655l-.687 2.1h-2.214l1.794 1.298-.649 2.062 1.718-1.26 1.794 1.26-.687-2.062 1.833-1.298h-2.253l-.649-2.1zM62.195 62.424l-.687 2.062h-2.215l1.795 1.336-.649 2.062 1.756-1.26 1.756 1.26-.649-2.062 1.795-1.336h-2.215l-.687-2.062zM54.101 74.642l-.649 2.1h-2.253l1.833 1.298-.649 2.1 1.718-1.298 1.756 1.298-.649-2.1 1.833-1.298h-2.215l-.725-2.1zM54.826 82.278l-.687 2.1h-2.252l1.832 1.336-.649 2.062 1.718-1.26 1.756 1.26-.649-2.062 1.795-1.336h-2.215l-.649-2.1zM59.026 88.539l-.649 2.1h-2.253l1.833 1.336-.687 2.062 1.756-1.298 1.795 1.298-.688-2.062 1.795-1.336h-2.215l-.687-2.1zM65.669 92.51l-.649 2.1h-2.252l1.832 1.336-.649 2.062 1.718-1.26 1.795 1.26-.687-2.1 1.832-1.298h-2.252l-.688-2.1z"/></svg>