<svg xmlns="http://www.w3.org/2000/svg" width="395.32431mm" height="125.36468mm" viewBox="0 0 395.32431 125.36468"><defs><clipPath id="a" clipPathUnits="userSpaceOnUse"><path d="M0 0h425.197v595.276H0Z"/></clipPath><clipPath id="b" clipPathUnits="userSpaceOnUse"><path d="M0 0h425.197v595.276H0Z"/></clipPath><clipPath id="c" clipPathUnits="userSpaceOnUse"><path d="M0 0h425.197v595.276H0Z"/></clipPath><clipPath id="d" clipPathUnits="userSpaceOnUse"><path d="M0 0h425.197v595.276H0Z"/></clipPath></defs><g style="stroke-width:.292033"><g clip-path="url(#a)" style="fill:#fff;stroke-width:.292033" transform="matrix(1.208 0 0 -1.208 -48.886 519.823)"><g style="fill:#fff;stroke-width:.292033"><path d="M0 0v-1.007c0-.43.073-.772.221-1.031.149-.251.425-.377.834-.377.343 0 .607.1.802.299.192.201.287.449.287.752 0 .503-.181.942-.546 1.318C1.239.337.678.796-.07 1.33c-.057.044-.149.113-.272.203-.18.149-.317.265-.41.336-.363.286-.657.533-.885.741a4.24 4.24 0 0 0-.623.697c-.184.26-.331.561-.442.904a4.107 4.107 0 0 0-.161 1.185c0 1.311.345 2.272 1.03 2.893.688.613 1.679.922 2.975.922 1.325 0 2.311-.294 2.954-.897.637-.607.959-1.446.959-2.52V4.562H2.127v.733c0 .444-.066.805-.195 1.087-.131.277-.397.417-.79.417-.329 0-.593-.092-.786-.278-.193-.179-.292-.43-.292-.745 0-.34.203-.701.598-1.085.396-.38.996-.862 1.788-1.454l.223-.17c.124-.101.306-.257.543-.457.354-.276.635-.516.846-.717a4.21 4.21 0 0 0 .593-.751c.187-.295.339-.647.453-1.055.113-.408.171-.891.171-1.451a3.19 3.19 0 0 0-.224-1.135 3.376 3.376 0 0 0-.715-1.137c-.327-.352-.77-.642-1.327-.865-.558-.226-1.22-.335-1.991-.335-.742 0-1.369.101-1.891.306-.522.208-.945.479-1.263.819-.316.34-.546.704-.689 1.088a3.432 3.432 0 0 0-.212 1.16V0Z" style="fill:#fff;fill-opacity:1;fill-rule:nonzero;stroke:none;stroke-width:.292033" transform="translate(108.401 331.373)"/></g></g><g style="fill:#fff;stroke-width:.292033"><path d="M0 0h6.968v-2.626H3.136v-2.708h3.35v-2.62h-3.35v-3.036H7.12v-2.618H0Z" style="fill:#fff;fill-opacity:1;fill-rule:nonzero;stroke:none;stroke-width:.292033" transform="matrix(1.208 0 0 -1.208 98.21 108.656)"/></g><g clip-path="url(#b)" style="fill:#fff;stroke-width:.292033" transform="matrix(1.208 0 0 -1.208 -48.886 519.823)"><g style="fill:#fff;stroke-width:.292033"><path d="M0 0c0 1.287.369 2.267 1.103 2.935.741.668 1.716 1.001 2.933 1.001 1.212 0 2.19-.333 2.929-1.001C7.704 2.267 8.074 1.287 8.074 0v-6.177c0-1.21-.366-2.177-1.09-2.876-.731-.708-1.712-1.058-2.948-1.058-1.238 0-2.219.35-2.946 1.058C.361-8.354 0-7.387 0-6.177Zm3.133-6.452c0-.136.005-.264.017-.391a1.16 1.16 0 0 1 .103-.391.7.7 0 0 1 .274-.329c.122-.088.292-.127.509-.127.215 0 .383.039.51.127a.74.74 0 0 1 .273.329c.057.136.089.267.101.391.012.127.016.255.016.391V.277c0 .176-.004.321-.016.447a1.137 1.137 0 0 1-.101.37.701.701 0 0 1-.273.309.961.961 0 0 1-.51.121c-.217 0-.387-.043-.509-.121a.663.663 0 0 1-.274-.309.99.99 0 0 1-.103-.37 4.771 4.771 0 0 1-.017-.447Z" style="fill:#fff;fill-opacity:1;fill-rule:nonzero;stroke:none;stroke-width:.292033" transform="translate(137.096 336.647)"/></g><g style="fill:#fff;stroke-width:.292033"><path d="M0 0h3.131v-9.933c0-.476.048-.825.145-1.043.098-.226.352-.335.759-.335.411 0 .661.109.757.335.096.218.144.567.144 1.043V0h3.138v-9.898c0-1.209-.368-2.177-1.097-2.876-.726-.708-1.705-1.058-2.942-1.058s-2.218.35-2.947 1.058C.366-12.075 0-11.107 0-9.898Z" style="fill:#fff;fill-opacity:1;fill-rule:nonzero;stroke:none;stroke-width:.292033" transform="translate(153.377 340.368)"/></g></g><path d="M-24.55 86.642h1.107v3.877h1.2v.924h-2.306z" style="fill:#fff;fill-opacity:1;fill-rule:nonzero;stroke:none;stroke-width:.103023" transform="matrix(3.42428 0 0 3.42428 240.122 -188.032)"/><g clip-path="url(#c)" style="fill:#fff;stroke-width:.292033" transform="matrix(1.208 0 0 -1.208 -48.886 519.823)"><g style="fill:#fff;stroke-width:.292033"><path d="M0 0v-1.007c0-.43.076-.772.226-1.031.144-.251.422-.377.834-.377.338 0 .604.1.8.299.189.201.285.449.285.752 0 .503-.179.942-.542 1.318C1.241.337.685.796-.064 1.33l-.271.203c-.187.149-.323.265-.412.336-.361.286-.659.533-.883.741-.232.2-.439.435-.625.697-.187.26-.336.561-.44.904a3.877 3.877 0 0 0-.163 1.185c0 1.311.343 2.272 1.028 2.893.685.613 1.68.922 2.972.922 1.332 0 2.316-.294 2.957-.897.639-.607.964-1.446.964-2.52V4.562H2.132v.733c0 .444-.065.805-.199 1.087-.128.277-.391.417-.791.417-.328 0-.588-.092-.781-.278-.193-.179-.29-.43-.29-.745 0-.34.198-.701.596-1.085.393-.38.995-.862 1.784-1.454l.225-.17c.129-.101.304-.257.547-.457.35-.276.631-.516.842-.717.207-.207.409-.456.595-.751.187-.295.338-.647.451-1.055.112-.408.17-.891.17-1.451 0-.359-.074-.743-.218-1.135a3.466 3.466 0 0 0-.718-1.137c-.328-.352-.772-.642-1.331-.865-.554-.226-1.221-.335-1.991-.335-.738 0-1.37.101-1.89.306-.522.208-.942.479-1.262.819a3.21 3.21 0 0 0-.685 1.088 3.316 3.316 0 0 0-.213 1.16V0Z" style="fill:#fff;fill-opacity:1;fill-rule:nonzero;stroke:none;stroke-width:.292033" transform="translate(195.625 331.373)"/></g></g><g style="fill:#fff;stroke-width:.292033"><path d="M0 0h4.159l2.552-13.608h-3.29l-.289 2.422H.935l-.321-2.422H-2.52Zm1.26-8.77h1.566l-.732 6.656h-.032Z" style="fill:#fff;fill-opacity:1;fill-rule:nonzero;stroke:none;stroke-width:.292033" transform="matrix(1.208 0 0 -1.208 205.93 108.656)"/></g><g style="fill:#fff;stroke-width:.292033"><path d="M0 0h4.941l.882-6.749h.037L6.743 0h4.94v-13.608H8.652v10.572h-.037L6.863-13.608H4.821L3.065-3.036h-.034v-10.572H0Z" style="fill:#fff;fill-opacity:1;fill-rule:nonzero;stroke:none;stroke-width:.292033" transform="matrix(1.208 0 0 -1.208 223.353 108.656)"/></g><g clip-path="url(#d)" style="fill:#fff;stroke-width:.292033" transform="matrix(1.208 0 0 -1.208 -48.886 519.823)"><g style="fill:#fff;stroke-width:.292033"><path d="M0 0v-1.007c0-.43.076-.772.224-1.031.144-.251.422-.377.833-.377.341 0 .607.1.799.299.193.201.291.449.291.752 0 .503-.181.942-.549 1.318C1.237.337.683.796-.067 1.33c-.054.044-.149.113-.271.203-.186.149-.322.265-.414.336-.36.286-.655.533-.882.741-.228.2-.437.435-.621.697-.191.26-.338.561-.444.904a4.039 4.039 0 0 0-.161 1.185c0 1.311.343 2.272 1.033 2.893.68.613 1.673.922 2.967.922 1.332 0 2.316-.294 2.957-.897.644-.607.961-1.446.961-2.52V4.562H2.129v.733c0 .444-.067.805-.195 1.087-.131.277-.394.417-.794.417-.328 0-.588-.092-.779-.278-.195-.179-.292-.43-.292-.745 0-.34.196-.701.595-1.085.398-.38.996-.862 1.787-1.454l.223-.17c.126-.101.306-.257.545-.457.351-.276.632-.516.844-.717a4.46 4.46 0 0 0 .597-.751c.184-.295.338-.647.449-1.055.112-.408.168-.891.168-1.451 0-.359-.07-.743-.219-1.135a3.456 3.456 0 0 0-.715-1.137c-.326-.352-.773-.642-1.329-.865-.554-.226-1.223-.335-1.991-.335-.74 0-1.37.101-1.894.306-.52.208-.94.479-1.258.819-.317.34-.549.704-.687 1.088a3.295 3.295 0 0 0-.214 1.16V0Z" style="fill:#fff;fill-opacity:1;fill-rule:nonzero;stroke:none;stroke-width:.292033" transform="translate(248.25 331.373)"/></g><g style="fill:#fff;stroke-width:.292033"><path d="M0 0h3.134v-9.933c0-.476.047-.825.146-1.043.097-.226.35-.335.759-.335.405 0 .658.109.754.335.099.218.148.567.148 1.043V0h3.133v-9.898c0-1.209-.363-2.177-1.092-2.876-.725-.708-1.704-1.058-2.943-1.058s-2.221.35-2.947 1.058C.366-12.075 0-11.107 0-9.898Z" style="fill:#fff;fill-opacity:1;fill-rule:nonzero;stroke:none;stroke-width:.292033" transform="translate(261.616 340.368)"/></g></g><g style="fill:#fff;stroke-width:.292033"><path d="M0 0h3.426l2.519-8.026h.034V0h3.032v-13.608H5.604l-2.537 8.41h-.03v-8.41H0Z" style="fill:#fff;fill-opacity:1;fill-rule:nonzero;stroke:none;stroke-width:.292033" transform="matrix(1.208 0 0 -1.208 286.817 108.656)"/></g><g style="fill:#fff;stroke-width:.292033"><path d="M0 0c0 1.287.37 2.267 1.112 2.935.738.668 1.713 1.001 2.932 1.001.561 0 1.087-.053 1.563-.167.476-.111.903-.3 1.278-.564.373-.262.664-.609.873-1.035.212-.437.318-.959.318-1.567V-.914H5.097V.453c0 .346-.083.614-.242.793-.154.186-.407.278-.752.278a.922.922 0 0 1-.48-.126.919.919 0 0 1-.297-.317 1.539 1.539 0 0 1-.147-.405A1.902 1.902 0 0 1 3.14.277v-6.729c0-.136.002-.264.012-.391.014-.124.048-.255.105-.391a.71.71 0 0 1 .271-.329c.129-.088.295-.127.516-.127.669 0 1.002.338 1.002 1.017v1.755H3.938v2.524h4.138v-7.494h-2.74v1.104h-.037c-.285-.453-.619-.791-1.007-1-.384-.218-.851-.327-1.414-.327-.54 0-1.002.106-1.375.318a2.358 2.358 0 0 0-.889.856A4.135 4.135 0 0 0 .147-7.69 7.742 7.742 0 0 0 0-6.177Z" style="fill:#fff;fill-opacity:1;fill-rule:nonzero;stroke:none;stroke-width:.292033" transform="matrix(1.208 0 0 -1.208 307.612 113.15)"/></g><g style="stroke-width:.292033"><path d="m0 0-.057.06c-5.635 5.886-8.924 12.345-9.776 19.198-.649 5.217.343 9.638 1.397 11.86.11.28.38.938.838 1.855a26.148 26.148 0 0 0-2.682-.133c-20.154-.002-49.981 20.701-51.241 21.583l-.483.338v9.38l1.385-.316c24.935-5.7 45.56-6.551 55.636-6.551 4.109 0 6.798.138 7.7.193l2.188 5.505c.391.982.601 1.51.741 1.814l-.014.006 1.207 3.034h18.58c1.416.263 12.761 2.513 18.984 8.153l1.803-1.282-4.064-9.55c-.44-1.032-.895-2.14-1.378-3.355a9.183 9.183 0 0 0 1.573-.192l43.017-.183c1.525.51 3.114.776 4.727.792l.036.005.286.001c3.192 0 6.308-1.5 8.132-3.915l.111-.144a10.016 10.016 0 0 0 5.087 2.599 12 12 0 0 0 2.295.232h.142c.766 0 1.536-.085 2.304-.254.001 1.14.011 1.938.033 2.577l.129 3.853 3.794.712c.973.183 1.416.267 2.371.662 1.131.476 2.745 1.382 4.928 2.766l7.652 4.87-.268-9.071c-.032-1.026-.052-3.418-.058-6.971a12.4 12.4 0 0 0 2.356.87c1.244.425 2.535.614 4.302.631a20.634 20.634 0 0 0 7.283-1.359l-.335 1.208h18.807l.093-.38c.898.194 1.845.296 2.83.304 1.102 0 2.249-.136 3.418-.403l.233-.06.23-.075a13.713 13.713 0 0 0 3.898-2.139c.087.128.176.253.268.377 1.524 2.069 4.002 3.485 6.792 3.88 1.391.211 2.816.319 4.226.319 3.687 0 9.275-.735 14.955-4.233a18.28 18.28 0 0 0 1.909-1.328c.551-.006 1.114-.01 1.686-.01l.628.002c.014 0 .212-.002.585-.002 4.26 0 42.208.175 62.575 6.218l1.455.432v-9.48l-.493-.337c-.067-.046-6.851-4.665-17.14-9.518-9.166-4.323-23.022-9.703-37.75-11.256 1.079-2.219 3.065-6.371 3.886-8.505l.05-.128c1.21-3.119 4.424-11.402-12.118-22.654L198.91.763l-2.499 2.053c-1.607 1.337-3.918 2.674-6.365 4.09-.917.53-1.864 1.078-2.811 1.647-3.656 2.246-7.411 4.789-9.739 9.049l-.066.112-.037.087c-.945 1.949-1.996 4.593-2.96 7.45l-.045.132-.739 2.225h-4.562c.599-1.984.793-2.579.855-2.753l1.767-5.078v-8.69h-22.352c-1.655-1.199-3.29-1.902-4.619-2.473-.397-.171-.772-.332-1.099-.487-1.054-.471-1.531-.817-1.617-.902l-.021-.024-3.64-3.811-3.464 3.965c-.846.971-1.872 1.62-3.588 2.55l-.406.225c-.514.284-1.089.601-1.679.957H113.17c-1.68-1.478-4.03-2.329-6.457-2.329l-.12.001c-1.263 0-2.56.184-4.068.578l-.164.045-.132.046a10.746 10.746 0 0 0-3.184 1.659H65.834c-3.503-3.519-8.291-6.659-14.239-9.34L44.95-1.261l.474 2.197c.652 3.026-1.602 5.995-1.625 6.025l-.042.054-.037.062c-.079.116-.639.733-2.181 2.04l-.475.422H21.783a13.751 13.751 0 0 0-1.58-1.404c-1.205-.919-2.599-1.722-4.264-2.458a33.073 33.073 0 0 0-4.901-1.699c-.064-.021-.151-.055-.261-.096l-.011-.005c-.39-.185-5.023-2.47-4.896-6.091l.084-2.422z" style="fill:#fff;fill-opacity:1;fill-rule:nonzero;stroke:none;stroke-width:.292033" transform="matrix(1.208 0 0 -1.208 74.901 92.018)"/></g><g style="stroke-width:.292033"><path d="m0 0-2.049-1.286L-3.917.249c-2.288 1.904-5.808 3.728-9.312 5.833-3.473 2.133-7.124 4.576-9.338 8.638l-.037.063-.018.044c-1.591 3.272-2.931 7.393-2.963 7.471l-.996 3.001h-6.901c.66-2.208 1.161-3.85 1.31-4.267l1.701-4.888V8.777h-21.594c-2.142-1.633-4.331-2.361-5.827-3.068-1.081-.482-1.77-.929-1.98-1.174l-2.777-2.909-2.649 3.033c-1.006 1.154-2.243 1.901-3.9 2.8-.699.388-1.493.814-2.306 1.318h-16.813c-.075-.07-.144-.136-.223-.205-1.69-1.529-3.924-2.145-5.901-2.122-1.299 0-2.552.216-3.795.541l-.113.031-.113.039c-1.193.377-2.239.984-3.154 1.716h-34.072c-2.669-2.764-7.081-6.217-14.23-9.439l-4.599-2.082c.777 3.603-1.836 6.957-1.836 6.957-.214.361-1.194 1.284-2.423 2.326-.245.219-.507.447-.77.69h-20.217a12.16 12.16 0 0 0-1.771-1.638c-1.324-1.009-2.731-1.745-4.032-2.32a32.227 32.227 0 0 0-4.751-1.645l-.01-.002c-.086-.027-.219-.078-.394-.144 0 0-5.749-2.589-5.588-7.176l-3.977 3.097c-12.682 13.247-9.853 26.293-8.158 29.824.005.009.571 1.543 1.889 3.777-19.484-4.191-55.364 20.907-55.364 20.907v7.37c36.758-8.402 64.01-6.361 64.01-6.361h.358c1.334 3.357 3.18 8.007 3.188 8.013l.923 2.321h17.863l-.007-.01s12.758 2.164 19.7 8.456l-4.064-9.549a172.573 172.573 0 0 1-2.017-4.98c.382.037.776.052 1.184.052a7.967 7.967 0 0 0 1.947-.194l43.326-.185c1.524.532 3.091.787 4.63.793l.032.005h.059c2.991.046 5.78-1.359 7.371-3.464a9.81 9.81 0 0 0 .873-1.32c.102.138.21.265.32.4a8.892 8.892 0 0 0 5.109 2.943 10.93 10.93 0 0 0 2.154.214 9.932 9.932 0 0 0 3.523-.632c-.002.487-.004.963-.004 1.416 0 1.004.007 1.904.033 2.632l.098 2.947 2.901.545c1.053.198 1.559.299 2.596.729 1.028.432 2.578 1.255 5.101 2.855l5.851 3.723-.205-6.935c-.041-1.315-.059-4.745-.061-9.003a11.222 11.222 0 0 0 3.816 1.784c1.25.433 2.497.57 3.988.584 2.585-.01 5.849-.569 9.015-2.269l-.589 2.118h16.428l.156-.642c1.168.38 2.401.556 3.665.566 1.035 0 2.092-.131 3.157-.375l.17-.043.17-.055c1.816-.64 3.315-1.629 4.57-2.819.244.496.531.982.879 1.446 1.37 1.86 3.62 3.094 6.044 3.437A27.336 27.336 0 0 0-5.23 54.665c.774-.466 1.48-.982 2.096-1.492.881-.011 1.791-.017 2.726-.012 0 0 41.552-.243 63.477 6.263v-7.365S36.442 33.83 7.083 31.322c0 0 3.441-6.961 4.565-9.883C12.777 18.518 16.033 10.905 0 0" style="fill:#231f20;fill-opacity:1;fill-rule:nonzero;stroke:none;stroke-width:.292033" transform="matrix(1.208 0 0 -1.208 317.768 87.86)"/></g><g style="stroke-width:.292033"><path d="M0 0c-.363 1.563-.48 34.972-.331 40.321-5.223-3.315-6.839-3.694-8.995-4.101-.088-2.589.05-8.649-.012-11.419-1.315 1.936-2.533 2.77-3.177 3.147-1.672 1.056-3.318 1.586-5.472 1.16-5.179-.974-5.471-7.843-5.825-14.301-.458-8.266-1.828-18.122 4.922-20.381 4.168-1.097 7.226-.231 8.448 4.851.242-1.438.676-2.217 1.592-2.939H2.474S.77-3.271 0 0m-10.039 17.143-.258-10.651c-.239-4.138-2.961-3.496-2.961-3.496-2.143.411-1.839 3.478-1.839 3.478l.285 10.757c.076 4.726 2.288 4.362 2.288 4.362 2.662 0 2.485-4.45 2.485-4.45m-72.336 12.918c-2.858 0-4.546-1.517-5.401-2.268-1.235-1.005-1.411-1.005-3.286-3.197 1.753 4.125 3.857 10.147 6.139 15.513-4.588-2.436-6.542-2.774-10.414-3.698l-3.362-8.281c-2.937 0-3.722 0-7.026-.081 1.368 3.352 3.191 8.041 3.191 8.041h-10.006l-3.883-9.749-.234-.579c-2.796-.009-17.943-.039-24.642.34-10.473.593-26.022 2.941-26.022 2.941 7.253-3.219 14.784-6.732 26.179-9.208 13.063-3.613 18.641 1.622 18.641 1.622s2.644 2.698 3.83 1.861c.303-.209.683-.342.589-1.062l-.4-.984c-3.22-6.835-8.15-18.922-8.15-18.922s-3.947-9.619 7.011-18.16c1.139 3.099 6.682 4.855 6.682 4.855s8.2 1.918 9.77 6.024c0 0 6.972 16.143 9.635 23.58 1.211 2.439 3.286 2.366 3.286 2.366s1.884.085 1.034-2.766c-2.199-5.43-5.623-16.47-8.537-23.461h10.055c2.914 7.992 7.013 20.415 9.527 27.069 1.069 2.835.631 8.204-4.206 8.204M-114.01-6.851s-5.716 1.124-3.255 7.396l7.944 18.667h6.576zM16.449 9.396c.115-1.735.66-5.831.24-7.667-.352-1.504-.697-1.943-1.982-2.02-3.256.516-3.352 13.165-3.352 13.165 4.944.016 8.819-.046 13.931 0-.428 4.632-1.131 10.327-3.664 12.814-4.697 4.595-11.325 4.636-13.458 3.784-4.173-1.052-5.61-4.283-5.985-8.126-.556-5.732.155-12.587 2.136-19.735 1.872-6.669 7.586-6.103 11.564-10.648C19.78-4.95 30.848-6.795 25.921 9.396c-3.95-.127-6.893.046-9.472 0m-4.444 15.729c.78.421 2.57.22 2.909-1.591.346-2.271.512-4 .579-6.14h-4.522c-.274 2.533-.546 6.713 1.034 7.731m30.071 4.267c-3.89.915-7.452-.51-8.113-3.306-.304 1.18-.621 2.384-.925 3.667h-8.69c2.277-8.177 5.736-25.545 7.996-33.415h10.419c-.692 1.976-5.32 17.827-6.929 23.72-.203 3.361 2.789 3.338 3.894 1.518 1.58-4.428 2.136-4.952 3.414-8.719h9.136c-1.724 5.576-4.287 14.53-10.202 16.535M-27.932-.037l1.453 22.599c.416 4.039-1.49 7.915-5.902 7.915-3.005-.073-5.437-.956-8.041-3.551 0 0 .332 1.457.582 2.758h-20.115l-4.236-17.316c-1.257-4.58-2.811-13.251-5.966-14.707-1.552 1.456-1.728 2.594-1.124 5.018l6.727 27.184H-76.57s2.292-1.644 1.834-5.521c-.241-2.026-5.748-17.395-7.159-24.057-.979-4.573 5.01-7.176 6.997-10.14.83-1.235 1.716-2.24 1.873-3.573C-59.417-7.255-56.986-.723-56.986-.723s2.51 15.845 5.353 26.432c.818 1.832 1.71 3.212 3.278 3.775-1.506-9.614-5.839-33.146-5.839-33.146h9.97c1.313 8.6 2.103 13.295 3.52 23.071.257 1.194.979 2.223 2.666 2.026 1.364-.17 2.196-1.292 2.008-2.592-1.192-7.314-2.218-14.946-3.133-22.505h13.829c-2.72.913-2.598 3.625-2.598 3.625m106.928 10.07c-2.676 2.174-5.577 3.703-10.63 6.292-3.099 1.859-7.899 3.433-8.587 7.071-.386 2.021 1.502 2.396 3.426 2.049 3.699-1.327 4.002-4.309 4.89-6.286 2.88-1.138 7.009-2.338 8.359-.138.522.691.671 1.853.092 3.302 0 0-.085.204-.251.522 4.731-.224 5.12-2.958 6.155-4.166 13.982 1.256 28.123 3.8 41.272 11.023-12.405-2.436-35.284-3.993-49.873-3.654-.611.581-1.696 1.479-2.604 2.001-5.548 3.421-11.431 3.944-15.932 3.258-4.614-.708-5.545-4.837-4.276-9.311 2.446-8.552 14.368-11.534 20.808-16.614 1.758-1.062 3.563-5.11 1.498-5.93-1.175-.83-2.885-.13-4.292 1.185-2.158 2.176-2.283 4.391-3.466 6.609l-9.274.085s1.351-4.09 2.774-7c3.189-5.982 12.224-8.814 17.744-13.357 4.913 2.52 9.582 5.853 9.138 9.596-.209 1.862-3.12 10.761-6.971 13.463" style="fill:#f9ae16;fill-opacity:1;fill-rule:nonzero;stroke:none;stroke-width:.292033" transform="matrix(1.208 0 0 -1.208 223.053 59.493)"/></g></g></svg>