<svg xmlns="http://www.w3.org/2000/svg" xml:space="preserve" width="253.84" height="253.81" viewBox="0 0 253.8425 253.81438"><g transform="matrix(1.25 0 0 -1.25 -37.788 1022)"><ellipse cx="132.07" cy="-715.98" fill="#c4ced4" rx="100.74" ry="100.73" transform="scale(1 -1)"/><ellipse cx="131.66" cy="-716.47" fill="#e31837" rx="96.628" ry="96.781" transform="scale(1 -1)"/><path fill="#fff" d="m228.58 721.05-193.73-.018a92.056 92.056 0 0 1-.14-5c0-8.829 1.301-17.469 3.704-25.73 22.815.004 163.37.013 186.57.026 2.417 8.33 3.717 17.046 3.717 25.947 0 1.598-.045 3.191-.126 4.775"/><path fill="#002b5c" d="M119.28 619.37a98.495 98.495 0 0 1 11.988-.747H131.399a97.61 97.61 0 0 1 25.497 3.38c25.452 7.308 47.169 25.358 59.859 48.524h-170.1c14.805-26.838 41.854-46.782 72.626-51.156"/><path fill="#c4ced4" d="M191.13 748.16a67.882 67.882 0 0 1-16.398 19.922 66.42 66.42 0 0 1-3.87 2.947c-11.02 7.857-24.48 12.501-39.042 12.528h-.117c-36.104-.005-65.606-28.332-67.473-63.99a73.92 73.92 0 0 1-.095-3.474v-.117c.005-9.319 1.89-18.202 5.306-26.28a66.081 66.081 0 0 1 1.35-2.992 67.766 67.766 0 0 1 15.453-20.709 67.369 67.369 0 0 1 4.995-4.131c11.264-8.433 25.24-13.432 40.392-13.45h.09c8.159.005 15.975 1.449 23.211 4.1 25.848 9.459 44.307 34.263 44.338 63.392v.086c0 9.315-1.89 18.194-5.301 26.27a67.097 67.097 0 0 1-2.84 5.9"/><path fill="#fff" d="M133.727 807.414s1.32-.963 1.184-2.174l-1.688-15.075 3.448-.385c.672-.077 1.184-.084 1.456.379 0 0 .424 3.797.904 8.05l3.488-7.67c.512-1.26-.608-1.35-.608-1.35l1.024-.14v.005l3.432-.386c.68-.076 1.184-.079 1.456.38l1.856 16.552-4.832.548-1.32.133s1.224-.875 1.096-2.081l-.72-6.413-4.104 8.629c-.112.216-.296.348-.576.379-.6.063-4.072.464-4.072.464l-1.424.155zm-2.528-.205c-.488-.009-2.376-.15-4.36-.217-.48-.099-1.36-.116-1.168-2.11l.8-15.089 4.864.26.36.099s-.328.554-.44 1.49c0 0-.768 13.68-.768 14.31 0 .624.712 1.257.712 1.257zm-10.216-.4-6.16-1.288s1.536-.49 1.792-1.687l.016-.048.888-4.262-3.384-.71c-.992-.207-1.2-1.195-1.2-1.195l-1.448 7.213-5.822-1.21s1.2-.56 1.456-1.757l.028-.048 3.066-14.801 3.4.703c.672.134 1.152.293 1.272.815l-1.24 5.942 4.712.984 1.344-6.476 3.4.697c.672.14 1.152.298 1.272.815l-3.392 16.313zm34.672-3.15a2.703 2.703 0 0 1-.792-.155c-.912-.342-1.688-1.452-2.344-3.332l-2.448-7.074c-.296-.832-.48-1.528-.544-2.095-.144-1.103.12-1.955.752-2.553.632-.6 1.8-1.202 3.536-1.8l3.024-1.047c2.184-.756 3.728-.96 4.624-.613.912.347 1.696 1.448 2.352 3.333 0 0 1.168 3.319 1.336 3.819.28.914-.408 1.493-.792 1.623l-5.672 1.977c-.664.23-1.088-.276-1.32-.703-.232-.432-1.072-2.855-1.072-2.855l-.296-.76s.648.63 1.496.338l2.08-.725c-.312-.76-.664-1.191-1.024-1.308-.328-.112-1.016.023-2.072.388 0 0-.728.283-.928.4-.504.328-.728.744-.656 1.28.032.306.144.726.336 1.28l1.36 3.916c.368 1.049.736 1.637 1.12 1.759.384.116 1.096-.005 2.152-.374l5.152-1.778c.936-.324 1.112-1.541 1.112-1.541l.36 1.027.912 2.643c.264 1.008-.376 1.549-1.24 1.85l-6.696 2.32c-1.624.565-2.888.815-3.808.76zm-53.983-1.28a1.477 1.477 0 0 1-.654-.106l-5.85-2.439c-2.11-.878-3.387-1.746-3.832-2.61-.446-.854-.28-2.218.485-4.064l.676-1.574c.103-.24.226-.46.365-.662.535-.773 1.279-1.292 2.25-1.552 1.153-.297 2.469-.13 3.958.492l2.278.948c.882.364 1.524.27 1.906-.288a.845.845 0 0 0 .155-.492s.259-.798-1.555-1.554l-4.59-1.92c-1.026-.346-2.517.626-2.517.626l1.525-3.62c.337-.806 1.366-1.33 2.208-.978l.457.19 3.164 1.314 2.284.957c2.116.881 3.388 1.74 3.833 2.609.45.864.255 2.112-.505 3.944 0 0-.59 1.365-.788 1.744-1.108 2.124-3.424 2.846-5.774 1.87l-2.643-1.103c-.955-.396-1.624-.32-1.997.225-.014.018-.118.24-.127.267-.117.396-.416 1.089.993 1.673l4.78 1.99c1.03.427 2.594-.598 2.594-.598s-.944 2.252-1.525 3.628c-.253.604-.893 1.047-1.554 1.084zm68.535-3.67c-.376.007-.632-.29-.744-.457-.144-.24-1.624-2.848-1.624-2.848l-.656-1.16s.992.966 2.128.31l2.544-1.478-6.504-11.264 4.584-2.658s.016.746.432 1.598c0 0 3.6 6.268 5.704 9.9l1.96-1.14c1.128-.652 1.088-2.426 1.088-2.426l1.064 1.87 1.768 3.08-7.192 4.156s-.032.02-.064.042l-4.08 2.354a.844.844 0 0 1-.408.121zm-89.488-7.039-2.869-2.003c-.576-.41-.827-.797-.773-1.4l4.838-14.73c.31-.922-.816-2.587-.816-2.587l5.042 3.53c.455.314.556.847.394 1.356l-.711 2.081 3.847 2.686 1.49-.943c.86-.71.246-1.504.246-1.504l5.534 3.875-16.222 9.639zm103.72-2.889c-.976-.027-2.072-.825-3.304-2.391l-4.624-5.886c-.544-.692-.936-1.293-1.184-1.806-.488-1-.544-1.884-.136-2.658.4-.774 1.32-1.725 2.752-2.854l2.512-1.983c1.824-1.431 3.224-2.125 4.176-2.089.976.031 2.08.824 3.312 2.39l4.632 5.886c.536.684.936 1.287 1.184 1.8.496.995.52 1.906.08 2.72-.36.73-1.28 1.674-2.744 2.82l-2.512 1.984c-1.792 1.413-3.176 2.098-4.144 2.067zm-112.056-2.053-.506-.605-2.7-3.066c-.014-.017-.012-.027-.035-.05-.365-.414-.63-.77-.598-1.153l6.876-10.609-9.689 5.238c-1.233.494-.717 1.841-.717 1.841l-.97-1.096-1.99-2.25a.201.201 0 0 0-.041-.057c-.504-.566-.752-1.14-.487-1.757l6.955-9.78-9.717 4.992c-1.26.648-.711 2.045-.711 2.045l-1.033-1.153-2.286-2.601c-.009-.014-.015-.025-.042-.056-.522-.59-.659-1.444-.155-1.863.077-.063.036-.042.036-.042l15.081-7.067 3.544 4.015c.482.545.62.837.394 1.413l-2.855 5.316 5.85-2.883 3.769 4.283c.468.53.539 1.277.345 1.848l-8.023 13.423c-.517.91-.295 1.674-.295 1.674zm10.99-2.202 2.32-1.525-1.392-1.013-.928 2.538zm102.2-1.167c.368-.02.96-.337 1.72-.906.472-.38.848-.701.976-.866.376-.455.432-.934.2-1.42-.136-.27-.384-.624-.76-1.061l-2.56-3.256c-.696-.891-1.256-1.318-1.72-1.3-.304-.004-.872.323-1.624.892-.456.367-.832.688-.952.838-.376.472-.44.938-.2 1.42.136.279.384.633.736 1.096l2.56 3.263c.688.873 1.232 1.3 1.624 1.3zm-53.768-1.509a65.76 65.76 0 0 1-65.756-65.76 65.76 65.76 0 0 1 65.756-65.76 65.76 65.76 0 0 1 65.76 65.76 65.76 65.76 0 0 1-65.76 65.76zm66.016-3.44s.24-1.607-.712-2.363l-11.96-9.344 2.144-2.743c.408-.53.768-.899 1.288-.773 0 0 3.016 2.355 6.384 4.993l-3.032-7.861c-.544-1.251-1.392-.507-1.392-.507l.608-.83.008.006 2.128-2.728c.424-.535.776-.894 1.288-.773l13.12 10.266-2.992 3.833-.824 1.033s.232-1.491-.728-2.243l-5.08-3.973 3.288 8.98c.08.225.04.445-.128.66-.368.477-2.52 3.241-2.52 3.241l-.888 1.125zM52.95 751.62l-2.27-6.996h-7.355l5.955-4.316-2.278-6.994 5.948 4.322 5.948-4.322-2.27 6.994 5.955 4.316h-7.355l-2.278 6.996zm157.52-.928-2.264-6.996h-7.368l5.96-4.324-2.272-6.994 5.944 4.32 5.952-4.32-2.272 6.994 5.952 4.324h-7.36l-2.272 6.996zm-28.752-89.12c-.16.024-.328.024-.496 0a1.376 1.376 0 0 1-.616-.248l-5.216-3.6c-1.88-1.296-2.952-2.408-3.208-3.344-.264-.928.2-2.224 1.32-3.872l.984-1.4c.152-.208.312-.4.496-.568.68-.648 1.52-1 2.528-1.056 1.184-.048 2.432.384 3.76 1.296l2.04 1.4c.784.544 1.424.584 1.92.12a.848.848 0 0 0 .256-.448s.416-.728-1.2-1.84l-4.096-2.832c-.928-.552-2.592.096-2.592.096s1.392-2.008 2.248-3.232c.488-.72 1.608-1.024 2.36-.504l.408.28 2.816 1.952 2.04 1.408c1.888 1.296 2.952 2.4 3.208 3.344s-.184 2.12-1.312 3.752c0 0-.864 1.216-1.136 1.544-1.52 1.84-3.936 2.08-6.032.64l-2.36-1.632c-.848-.584-1.52-.656-2-.2a1.62 1.62 0 0 0-.168.24c-.2.368-.64.968.616 1.832l4.264 2.944c.92.632 2.656-.04 2.656-.04l-2.24 3.224c-.28.408-.752.68-1.248.744zm-102.824-.28c-.34-.016-.643-.16-.808-.44-.048-.088-.035-.048-.035-.048l-5.378-15.512 4.528-2.856c.612-.392.927-.472 1.462-.16l4.788 3.664-1.919-6.24 4.823-3.048c.6-.376 1.349-.328 1.885-.048l11.194 10.544c.819.664 1.61.56 1.61.56l-.682.4-3.453 2.184c-.019.016-.036.016-.063.032-.468.296-.858.496-1.23.4l-7.595-7.392 2.778 8.936c.176.864 1.561.888 1.561.888l-1.223.784-2.553 1.608c-.018.008-.026.008-.049.024-.648.408-1.255.568-1.821.208l-7.805-7.24 3.425 8.712c.44 1.344 1.912 1.032 1.912 1.032l-1.301.832-2.931 1.848c-.014 0-.033.008-.064.032a1.82 1.82 0 0 1-1.056.296zm89.152-9.64c-.6-.04-1.36-.256-2.28-.656l-11.464-4.96s1.584-.288 2.152-1.288l5.312-12.264c.232-.864-.088-1.8-.24-2l11.168 4.792c1.52.656 2.4 1.376 2.648 2.128.248.768-.024 2.072-.808 3.888l-3.32 7.248c-.352.8-.52 1.096-.768 1.576-.504.96-1.192 1.424-1.848 1.52a2.488 2.488 0 0 1-.552.016zm-64.904-4.288c-.463.032-1.034-.152-1.47-1.584l-4.95-14.272 4.605-1.6.36-.04s-.087.632.161 1.544c0 0 4.458 12.952 4.697 13.528.238.584 1.133.904 1.133.904-.45.176-2.247.76-4.115 1.448-.121.024-.267.056-.421.072zm63.256-.656a.675.675 0 0 0 .312-.048c.2-.08.376-.24.536-.496.208-.328 3.048-6.664 3.008-7-.032-.344-.208-.592-.52-.72l-4.392-1.912-2.576 5.928c-.16.392-.552 1.288-1 2.304l4.296 1.864c.12.048.232.072.336.08zm-56.27-1.736c-.78-.064-1.12-.672-1.347-1.408l-.507-2.288h.014l-.231-.944s.938.712 1.969.552l5.852-1.28-9.797-8.256-.597-2.768 12.77-2.808c.816-.184 1.384-.208 1.672.616l.92 4.224s-.952-.928-2.008-.752l-6.192 1.368 10.024 7.664.728 3.264s-12.728 2.792-12.912 2.808a1.824 1.824 0 0 1-.359.008zm41.35-.12c-.48 0-1.048-.056-1.704-.176l-12.176-2.288s1.536-.576 1.8-1.736l2.704-14.864 3.392.632c.672.12 1.16.264 1.288.784l-.912 5.032 2.368.472 4.104-4.984 6.072 1.128s-1.048.256-1.632.816l-3.696 4.088c.856.2 1.552.672 1.808 1.096.416.696.432 2.024.072 3.976 0 0-.696 3.416-.832 3.952-.264 1.024-.84 1.648-1.472 1.88-.304.128-.696.192-1.184.192zm-22.776-2.544c-.704-.008-1.12-.176-1.424-.704l-4.48-14.832c-.28-.936-2.152-1.664-2.152-1.664h6.144c.552 0 .952.376 1.112.888l.608 2.112h4.688l.688-1.632c.304-1.072-.664-1.368-.664-1.368h6.76l-7.776 17.2h-3.504zm20.744-1.952c.312-.048.552-.296.696-.728.128-.352.312-1.6.2-1.928-.104-.32-.328-.512-.672-.576l-2.808-.56c-.64-.12-1.104-.784-1.488-1.584l-.832 4.496 4.552.88c.128.016.24.024.352 0zm-18.96-5.528.976-2.6h-1.72l.744 2.6z"/><path fill="#e31837" d="M131.76 776.38a60.135 60.135 0 0 1-12.748-1.357c3.028-1.566 6.052-4.44 7.973-9.682l4.76 7.01 4.768-7.01c1.912 5.224 4.928 8.102 7.952 9.668a60.287 60.287 0 0 1-12.705 1.371zm-19.041-3.073c-17.658-5.886-31.662-19.749-37.737-37.322 8.086 12.146 23.899 25.95 48.073 28.68-2.128 5.103-6.448 7.508-10.336 8.642zm37.997-.014c-3.87-1.143-8.165-3.547-10.28-8.627 23.985-2.709 39.749-16.319 47.89-28.392-6.124 17.424-20.06 31.161-37.61 37.02z"/><path fill="#002b5c" d="M152.36 757.64c-2.162-.047-3.178-.76-3.178-.76l-6.996-3.916.358-1.3 1.526-5.541s2.872-7.984 9.703-14.815c12.902-12.753 29.373-31.414 27.703-48.473 6.273 9.292 9.994 20.44 10.21 32.442a54.834 54.834 0 0 1-5.408 16.045c-4.5 8.64-13.198 16.793-23.885 23.098-4.565 2.648-7.872 3.267-10.034 3.22zm-41.231-.007c-2.162.046-5.464-.565-10.027-3.213-10.688-6.3-19.385-14.456-23.885-23.105a54.94 54.94 0 0 1-5.491-16.573c.32-11.866 4.061-22.874 10.308-32.062-1.782 17.1 14.745 35.835 27.682 48.628 6.835 6.826 9.71 14.815 9.71 14.815l1.526 5.547.358 1.294-6.996 3.917s-1.023.706-3.185.752zm20.616-12.642c-.693-.495-22.841-16.436-32.597-32.217-13.167-21.298-11.457-33.58-8.05-40.591 8.486-7.803 19.226-13.192 31.133-15.082l5.133 72.752 4.275 4.296.056.056h.007l.05-.056 4.282-4.296 5.168-72.696-.07-.035a59.81 59.81 0 0 1 31.337 15.223c3.353 7.038 4.94 19.293-8.128 40.43-9.756 15.782-31.899 31.722-32.597 32.217z"/><path fill="#c4ced4" d="m131.74 767.69-.703-1.42-1.392-2.84h-.007l-.057-.12-.056-.12-.752-1.533-.064-.133-.014-.022-1.87-.12c-2.65-.166-5.28-.53-7.882-.976-1.154-.198-2.318-.368-3.46-.62l3.678-1.982 3.677-1.983 1.14-.611 1.139-.612-.69-2.496-.042-.14-.309-1.154-2.053-7.44 4.669 3.44 3.157 2.334.935.689.928.689v.035l.028-.021.028.021v-.035l.935-.69.935-.688 7.82-5.773-2.047 7.44-.176.646-.176.647-.689 2.496.739.394 1.533.83 4.97 2.671 2.391 1.294c-1.143.252-2.31.42-3.466.619-2.606.445-5.22.81-7.875.977l-1.878.12-.035.077-.042.077-.752 1.533-.043.091-2.172 4.41zm.014-33.546.05-82.336 9.323 5.316.07.035-5.168 72.696-4.275 4.289z"/></g></svg>